<svg xmlns="http://www.w3.org/2000/svg" width="1163" height="95" viewBox="0 0 1163 95" fill="none">
<path d="M1162.92 281.982C1162.92 278.027 1162.04 274.073 1161.36 270.074C1161.14 266.37 1160.57 262.679 1159.67 259.021C1157.64 253.089 1151.62 248.147 1149.59 242.17C1147.33 234.114 1146.56 225.906 1147.29 217.727C1147.66 214.106 1147.66 210.473 1147.29 206.852C1146.61 203.123 1144.85 199.528 1144.45 195.754C1143.63 187.711 1142.35 179.712 1141.74 171.714C1141.13 163.716 1141.13 156.212 1139.57 148.528C1138.02 140.845 1134.9 133.97 1132.81 126.601C1131.79 122.961 1131.45 119.232 1130.44 115.547C1129.67 113.401 1129.11 111.225 1128.75 109.032C1128.75 107.01 1129.29 104.988 1128.75 103.011C1127.73 98.113 1120.49 95.9561 1114.67 93.7993C1110.85 92.3434 1106.87 91.0816 1102.76 90.0248C1096.4 88.542 1090.79 86.3852 1084.63 84.7675C1075.64 83.1342 1066.26 82.7065 1057.02 83.5094C1045.58 83.5094 1034.15 84.4981 1022.71 84.1835C1016.71 84.2233 1010.77 83.3792 1005.32 81.7121C1000.92 80.2293 996.93 78.2522 992.464 76.9491C982.523 74.7144 972.245 73.2076 961.811 72.4558C956.767 71.569 951.797 70.5041 946.924 69.2655C941.504 68.4128 936.273 67.0988 931.361 65.3563C928.21 63.8135 924.858 62.4601 921.346 61.3123C916.62 60.4211 911.767 59.8637 906.865 59.6496C896.079 58.8777 885.219 58.6674 874.384 59.0206C868.769 59.1834 863.156 58.6812 857.806 57.5377C852.189 56.2347 846.911 54.3025 841.363 52.7748C830.739 49.8541 819.844 47.6074 809.356 44.507C798.867 41.4066 787.499 38.7106 777.078 35.026C768.078 31.2558 758.616 27.9941 748.793 25.2754C744.192 24.2419 740.132 22.6692 735.733 21.5908C730.492 20.7162 725.151 20.1301 719.764 19.8384C714.35 19.1195 709.14 17.7715 703.727 17.0526C698.313 16.3336 691.682 15.6146 685.592 14.8957C674.165 13.3434 663.119 10.7422 652.773 7.16709C643.87 4.33586 634.26 2.61477 624.42 2.08956C618.804 1.68516 613.458 0.696691 607.909 0.20242C602.549 -0.0674733 597.165 -0.0674733 591.804 0.20242C583.696 0.275753 575.904 2.30384 569.88 5.90895C560.88 10.4023 547.753 10.7618 536.723 11.1213C525.821 11.2299 514.933 10.5671 504.243 9.14418C493.988 8.28339 483.633 8.07282 473.318 8.51518C468.514 8.51518 463.507 8.51512 458.77 9.00939C453.076 9.90336 447.283 10.4895 441.447 10.7619C436.926 10.5224 432.376 10.6733 427.913 11.2111C423.029 12.1101 418.292 13.3293 413.771 14.8507C408.561 16.3785 403.283 17.2772 397.937 18.5353C393.599 19.7599 389.055 20.6349 384.403 21.1415C379.396 21.4111 374.659 22.7142 369.719 22.8939C364.293 22.9851 358.905 23.5286 353.682 24.5116C343.239 26.7747 333.023 29.4761 323.096 32.5996C317.751 34.1723 312.405 35.3406 306.924 36.5538C301.443 37.767 295.285 38.1713 290.007 39.699C285.811 40.9572 282.225 42.8893 278.097 44.1924C272.77 45.5635 267.197 46.4698 261.519 46.8885C237.97 49.5396 214.152 45.855 190.333 47.877C185.47 48.4576 180.676 49.2685 175.987 50.3035C171.204 50.876 166.514 51.7485 161.98 52.9096C156.431 54.5272 151.491 56.8189 145.875 58.3466C140.517 59.8173 135.025 61.0629 129.432 62.0761C118.808 64.0082 109.47 67.6478 99.0488 70.0293C88.628 72.4108 78.7486 72.995 68.6661 75.4664C62.9453 76.9479 56.9659 77.9443 50.8695 78.432C46.8764 78.623 42.9012 78.953 38.9601 79.4206C33.3219 80.4205 28.034 82.1455 23.3965 84.498C23.3965 83.9587 22.449 83.5095 21.84 84.0037C19.0657 86.2504 15.0734 87.8231 12.6373 90.2944C10.5807 93.4704 10.3638 97.039 12.0283 100.315C14.3305 105.046 15.8728 109.926 16.6297 114.873C16.968 120.625 16.6297 126.376 16.6297 132.128C15.953 155.179 17.171 178.23 16.6297 201.281C16.6297 212.2 13.923 222.984 13.923 233.947V318.962C13.923 324.219 14.5997 329.521 13.923 334.734C13.5847 338.104 12.096 341.294 11.3516 344.664C10.8103 347.091 10.8779 349.517 10.6749 351.988C10.3384 358.786 9.11598 365.551 7.02101 372.208C4.65264 379.353 -3.46753 387.98 1.67521 395.304C1.76625 395.394 1.88651 395.469 2.02709 395.523C2.16768 395.578 2.32494 395.611 2.48719 395.619C6.45911 395.458 10.334 394.738 13.8553 393.507C18.9304 392.294 24.6821 391.8 29.8925 390.856C40.9973 389.228 52.4377 388.863 63.7263 389.778C75.9937 390.684 88.3299 391.12 100.673 391.081C112.881 390.713 125.113 390.909 137.281 391.665C160.626 393.507 183.227 398.45 206.843 398.225C218.468 397.686 230.135 397.686 241.76 398.225C253.872 399.169 265.714 400.876 277.894 401.415C302.187 402.494 326.344 399.708 350.705 400.067C375.065 400.427 400.17 402.314 425.139 401.955C436.981 401.955 448.823 401.955 460.597 401.326C472.371 400.697 485.093 399.978 497.408 399.708C521.125 399.244 544.769 397.743 568.188 395.215C580.801 393.398 593.569 392.092 606.421 391.305C618.736 390.946 631.119 391.305 643.435 391.305C668.404 391.036 693.103 388.834 717.869 386.812C742.636 384.79 767.605 383.307 792.304 382.723C804.957 382.453 817.273 381.69 829.859 380.971C841.363 380.342 852.934 380.971 864.437 380.072C875.941 379.173 888.933 377.825 901.451 377.466C913.97 377.106 924.932 377.466 936.706 377.196C961.568 376.896 986.432 377.677 1011.14 379.533C1035.82 381.624 1060.69 382.57 1085.57 382.364C1097.83 382.235 1110.09 382.67 1122.25 383.667C1128.02 384.191 1133.82 384.491 1139.64 384.565C1143.56 384.875 1147.52 384.439 1151.08 383.307C1155.68 381.24 1154.53 377.151 1154.53 373.961C1154.83 371.08 1155.39 368.214 1156.22 365.379C1156.92 361.532 1157.28 357.661 1157.3 353.786C1157.3 337.879 1162.58 322.332 1162.58 306.381C1162.92 298.293 1163.12 290.204 1162.92 281.982Z" fill="#E13A4B"/>
</svg>