    <svg
      className=""
      width="352"
      height="368"
      viewBox="0 0 352 368"
      fill="none"
      xmlns="http://www.w3.org/2000/svg"
    >
      <path
        d="M350.108 349.518C347.824 347.162 345.354 344.992 342.723 343.031C340.916 341.586 339.024 340.25 337.057 339.031C334.835 337.46 332.766 335.683 330.878 333.724C326.826 329.939 323.369 325.565 320.621 320.75C317.878 315.622 315.493 310.058 312.57 304.879C310.493 300.395 307.82 296.212 304.622 292.443C301.033 288.854 297.11 285.674 293.597 282.008C289.92 278.258 286.888 273.926 284.623 269.188C283.392 266.624 282.059 264.06 280.495 261.496C279.208 258.916 278.194 256.209 277.469 253.419C276.598 250.855 275.239 248.496 274.316 245.958C273.569 243.502 272.978 241.001 272.547 238.471C270.966 233.771 268.683 229.336 265.777 225.318C263.124 220.254 260.96 214.948 259.316 209.472C258.164 206.851 257.146 204.172 256.265 201.447C255.782 198.611 255.878 195.707 256.547 192.909C257.405 188.24 257.56 183.47 257.009 178.756C256.675 176.192 256.342 173.628 255.957 171.064C255.804 169.884 255.496 168.782 255.265 167.628C254.971 166.022 254.867 164.387 254.958 162.756C254.958 157.013 254.957 151.295 254.701 145.552C254.409 142.663 254.582 139.745 255.214 136.911C255.584 135.891 255.842 134.834 255.983 133.757C255.983 132.347 255.804 130.963 255.983 129.552C256.291 123.604 259.367 118.014 262.239 112.963C263.579 110.942 264.535 108.69 265.06 106.323C265.521 103.579 266.085 100.836 266.572 98.0922C267.06 95.3487 267.419 92.7078 267.957 90.0668C268.419 87.8618 269.47 85.8619 269.752 83.6056C269.957 80.9356 270.008 78.2561 269.906 75.5803C269.906 72.6317 269.906 69.6831 269.906 66.7345C269.872 64.2112 269.606 61.6963 269.111 59.2219C268.849 56.9556 268.244 54.7423 267.316 52.6581C266.433 50.5928 265.268 48.6599 263.855 46.9147C262.312 45.2187 260.678 43.6095 258.957 42.0944C257.891 41.2377 257.031 40.1523 256.441 38.9186C255.851 37.6848 255.545 36.3342 255.547 34.9665C255.534 32.2639 255.791 29.5667 256.316 26.9155C257.328 21.6841 257.869 16.3724 257.932 11.0444C257.932 7.32659 257.778 2.30114 253.881 0.37814C252.547 -0.288499 251.47 0.378155 250.24 0.993515C247.676 2.24987 244.599 1.81398 241.83 2.73702C239.558 3.32638 237.256 3.7886 234.933 4.12156C232.369 4.63436 229.805 4.83948 227.241 5.40356C224.677 5.96764 222.113 7.12144 219.549 7.96756C216.985 8.81368 214.421 9.50599 211.857 10.4034C209.464 11.3173 207.127 12.3703 204.857 13.5571C202.289 14.7841 199.643 15.8377 196.934 16.7108C194.402 17.697 191.772 18.4104 189.088 18.8389C186.668 19.0951 184.227 19.0951 181.807 18.8389C177.195 18.0067 172.483 17.877 167.833 18.4543C162.705 19.5056 158.295 23.1208 154.038 25.9412C151.731 27.454 149.449 29.0693 147.013 30.3513C144.577 31.6333 142.372 31.8897 140.244 33.1461C138.116 34.4024 136.296 36.069 134.142 37.2485C131.988 38.4279 129.68 39.6073 127.475 40.9406C124.898 42.4374 122.152 43.6251 119.296 44.4789C116.732 45.2738 114.348 46.2481 111.809 47.0429C110.393 47.4399 108.942 47.6976 107.476 47.8121C106.275 47.8211 105.076 47.9067 103.887 48.0685C102.998 48.3293 102.139 48.6816 101.323 49.1198C99.7838 49.7818 98.1261 50.1221 96.451 50.1197C91.4769 50.3248 87.0411 50.1198 82.7849 52.9914C81.794 53.7129 80.7064 54.2912 79.5542 54.7093C78.5462 54.9741 77.5604 55.317 76.6057 55.7349C74.8846 56.6882 73.2763 57.8321 71.811 59.145C70.2856 60.4865 68.9409 62.0207 67.811 63.7089C66.3254 65.9221 64.2706 67.6937 61.8627 68.8369C59.5807 69.9651 57.2987 70.9907 55.1193 72.324C52.9399 73.6573 50.6323 75.2469 48.3503 76.6571C43.6839 79.5801 38.9917 82.5287 34.197 85.2209C31.9407 86.5029 29.6074 87.6311 27.428 88.99C25.2486 90.3489 23.6847 92.9385 21.3258 92.6052C21.0951 92.6052 20.9925 92.9385 21.3258 92.9642C21.9516 93.0552 22.5902 92.9905 23.185 92.7758C23.7798 92.5612 24.3124 92.2031 24.7359 91.7334L25.3769 91.1693C24.3 92.4001 23.4026 93.7334 22.2488 95.0154C20.7577 96.2729 19.1223 97.3488 17.3772 98.2204C13.8389 100.502 13.9415 104.964 14.044 108.733C14.1722 114.604 14.044 120.476 14.044 126.347C14.044 132.219 14.1723 138.424 13.7877 144.475C13.4031 150.526 13.326 156.423 12.3774 162.269C11.9415 164.833 11.4544 167.397 11.198 170.141C10.9416 172.884 11.0698 175.986 11.198 178.935C11.198 184.986 11.198 191.012 11.198 197.063C11.2624 200.112 11.1082 203.163 10.7365 206.19C10.3263 208.96 9.78776 211.703 9.37752 214.447C8.58268 220.113 8.71088 225.779 8.09552 231.446C7.48016 237.112 5.53151 243.112 4.55719 249.009C3.62759 254.467 3.10484 259.986 2.99319 265.521C2.99319 277.162 3.81367 288.905 2.99319 300.52C2.17271 312.135 -0.365716 323.083 0.0445238 334.493C0.298819 342.133 1.84191 349.674 4.60852 356.8C7.17252 362.825 11.3519 367.927 18.4285 367.056C21.1527 366.595 23.9003 366.287 26.6589 366.133C29.5305 366.133 32.3766 365.646 35.2227 365.312C37.8316 364.769 40.4678 364.367 43.1198 364.107C45.8672 364.005 48.6182 364.108 51.3502 364.415C54.0746 364.842 56.8239 365.09 59.5807 365.158C62.2371 365.064 64.8839 364.79 67.5034 364.338C70.375 363.876 73.2467 363.235 76.144 363.03C78.9196 362.876 81.7015 362.876 84.477 363.03C96.2869 363.242 108.096 362.582 119.809 361.056C122.373 360.748 125.091 361.056 127.655 360.594C130.219 360.133 133.142 359.133 135.937 358.569C141.803 357.123 147.876 356.706 153.885 357.338C159.498 357.906 165.142 358.103 170.781 357.928C176.686 358.219 182.602 358.15 188.499 357.723C194.344 356.805 200.231 356.18 206.139 355.851C212.216 355.851 218.344 356.338 224.42 355.851C227.266 355.569 230.061 355.133 232.907 355.005C235.753 354.877 238.599 355.005 241.471 355.005C244.343 355.005 247.266 354.466 250.163 354.236C253.06 354.005 256.034 353.954 258.983 353.928C264.957 353.928 270.931 354.082 276.931 353.928C282.931 353.774 288.52 352.979 294.341 352.518C300.161 352.056 306.084 352.031 311.981 352.056C317.859 351.941 323.74 352.146 329.595 352.672C335.061 353.415 340.597 353.492 346.082 352.902C347.185 352.749 348.287 352.569 349.364 352.313C349.877 352.185 350.902 352.159 351.159 351.646C351.415 351.133 350.569 349.98 350.108 349.518Z"
        fill="#202147"
      />
      <path
        d="M70.2213 123.348H71.0931H71.6316L71.9904 123.065C73.4776 121.809 74.9904 120.502 76.5288 119.399L77.1441 118.937L78.4261 117.963L79.3491 117.194C79.6844 116.868 80.0445 116.567 80.4261 116.297C81.0185 115.898 81.679 115.611 82.3748 115.45C83.274 115.151 84.1347 114.747 84.9388 114.245C86.4655 113.309 88.0401 112.453 89.6564 111.681C91.3272 110.949 93.0395 110.316 94.7844 109.784C96.458 109.224 98.059 108.466 99.5534 107.528C100.989 106.682 102.476 105.938 103.964 105.169C105.517 104.366 106.942 103.338 108.194 102.118C109.443 101.133 110.913 100.464 112.476 100.169C113.358 99.9548 114.217 99.6542 115.04 99.2716C115.674 98.9818 116.371 98.8583 117.066 98.9127H117.809H119.168V97.6306V96.2717H116.604C116.093 96.2679 115.583 96.3369 115.091 96.4768C114.647 96.6141 114.218 96.7944 113.809 97.0152C113.502 97.1653 113.185 97.2939 112.861 97.3999L112.22 97.5793C110.957 97.8708 109.729 98.2919 108.553 98.8357C107.616 99.3281 106.753 99.9495 105.989 100.682C105.502 101.134 104.979 101.545 104.425 101.912C103.596 102.405 102.74 102.85 101.861 103.246C101.169 103.579 100.477 103.912 99.8099 104.297L98.6048 105.015C97.4573 105.729 96.2574 106.354 95.0153 106.887C94.2461 107.194 93.4511 107.451 92.6819 107.707C91.9127 107.964 90.7078 108.348 89.7591 108.758C88.0705 109.469 86.4188 110.265 84.8104 111.143L83.9388 111.656C83.437 111.973 82.9145 112.255 82.3748 112.502L81.5029 112.784C80.9566 112.922 80.4244 113.111 79.9133 113.348C79.0859 113.796 78.319 114.347 77.6313 114.989C76.939 115.604 76.1955 116.168 75.4519 116.732L74.9391 117.143C73.294 118.332 71.7268 119.625 70.2469 121.014L69.6059 121.732L69.9136 122.527L70.2213 123.348ZM64.0164 195.857C64.6062 195.216 65.1959 194.575 65.8113 193.96C66.4266 193.345 67.0933 192.627 67.7343 191.909C68.3753 191.191 68.4265 191.114 68.8111 190.729L69.8624 189.678C70.5716 189.027 71.2314 188.324 71.8366 187.576L72.2469 187.012C72.7501 186.233 73.3935 185.555 74.1443 185.012C74.7083 184.678 75.298 184.371 75.8878 184.089C76.5732 183.756 77.2408 183.388 77.8878 182.986L79.0159 182.294C81.1184 180.961 83.2465 179.73 85.3746 178.371C86.1838 177.906 87.0442 177.536 87.9386 177.268L89.1949 176.833C90.4938 176.358 91.754 175.784 92.9641 175.115C93.6037 174.761 94.2202 174.367 94.8101 173.935L95.2716 173.576C95.4919 173.362 95.7423 173.18 96.0151 173.038C96.3192 172.931 96.6423 172.887 96.9639 172.91H98.3741C98.6555 172.936 98.9387 172.936 99.2201 172.91C99.8806 172.834 100.523 172.643 101.118 172.346C101.523 172.097 101.887 171.786 102.194 171.423L102.579 171.038C102.919 170.823 103.28 170.642 103.656 170.499L104.015 170.371L105.117 169.858L106.22 169.32C106.68 169.17 107.152 169.059 107.63 168.987H107.886C108.433 168.919 108.949 168.696 109.374 168.346C109.972 167.727 110.389 166.955 110.579 166.115V165.833C110.579 165.833 110.835 165.218 112.297 164.192C112.778 163.904 113.295 163.68 113.835 163.525C114.544 163.308 115.224 163.007 115.861 162.628C116.501 162.166 117.035 161.571 117.425 160.884C117.598 160.595 117.795 160.32 118.014 160.064C118.911 159.097 119.981 158.305 121.168 157.731C121.698 157.552 122.174 157.244 122.553 156.833C123.937 155.936 125.347 155.141 126.758 154.269L127.783 153.654C129.85 152.474 131.845 151.173 133.757 149.757C134.566 149.194 135.424 148.704 136.321 148.295C137.342 147.821 138.313 147.245 139.219 146.577C139.836 146.134 140.488 145.74 141.167 145.398L142.013 144.936L144.295 143.577L145.552 142.834C146.38 142.333 147.236 141.879 148.116 141.475C149.403 140.882 150.645 140.196 151.833 139.424C152.782 138.783 153.808 138.244 154.885 137.655C155.961 137.065 156.679 136.706 157.449 136.168C158.178 135.717 158.931 135.306 159.705 134.937C161.012 134.391 162.251 133.694 163.397 132.86C164.1 132.359 164.847 131.921 165.628 131.552L166.038 131.347C166.549 131.079 167.038 130.77 167.499 130.424C167.922 130.083 168.388 129.799 168.884 129.578C169.574 129.323 170.303 129.193 171.038 129.193H172.089C173.423 129.005 174.768 128.902 176.115 128.886H182.037C182.571 128.876 183.105 128.927 183.627 129.04C185.195 129.366 186.794 129.52 188.396 129.501H190.601H192.498C194.068 129.543 195.638 129.449 197.191 129.219L199.473 128.86C201.15 128.619 202.805 128.241 204.421 127.732C206.528 127.122 208.49 126.093 210.19 124.706C210.864 124.141 211.626 123.691 212.446 123.373L213.472 123.117C214.147 122.994 214.808 122.805 215.446 122.553C216.504 122.041 217.656 121.753 218.831 121.707H220.267C221.138 121.707 222.01 121.707 222.831 121.707C225.109 121.45 227.364 121.013 229.574 120.399L230.625 120.143C231.397 119.959 232.158 119.737 232.907 119.476C233.548 119.245 234.189 118.937 234.804 118.655C235.42 118.373 235.83 118.168 236.343 117.963C237.705 117.473 239.102 117.087 240.522 116.809C241.497 116.579 242.471 116.373 243.42 116.091L244.086 115.886C245.9 115.524 247.603 114.743 249.06 113.604L249.778 112.989L249.471 112.143L249.112 111.245H247.701L247.368 111.527C245.732 112.599 243.889 113.316 241.958 113.63L240.65 113.938L238.984 114.348C237.226 114.708 235.509 115.241 233.856 115.938C229.377 117.959 224.514 118.991 219.6 118.963H219.292C218.214 118.927 217.135 119.039 216.087 119.296C215.569 119.455 215.063 119.652 214.575 119.886C214.115 120.105 213.634 120.277 213.139 120.399L212.626 120.527C211.842 120.638 211.081 120.872 210.37 121.219C209.583 121.634 208.844 122.132 208.165 122.707L207.498 123.194C205.751 124.368 203.777 125.163 201.703 125.527C200.547 125.79 199.373 125.97 198.191 126.065C197.561 126.12 196.936 126.214 196.319 126.347C195.778 126.464 195.23 126.541 194.678 126.578H194.165H192.934H191.601H189.524H187.704C186.588 126.56 185.478 126.414 184.396 126.142C183.707 125.983 183.001 125.914 182.294 125.937H176.217C175.235 125.885 174.251 125.885 173.268 125.937H172.217C170.203 125.926 168.221 126.448 166.474 127.45C165.756 127.937 164.987 128.373 164.218 128.809C163.212 129.363 162.236 129.971 161.295 130.629C160.742 131.011 160.149 131.329 159.525 131.578L158.602 132.014C157.72 132.469 156.864 132.974 156.038 133.527L155.423 133.911C154.511 134.474 153.569 134.988 152.603 135.45C151.93 135.768 151.286 136.146 150.68 136.578L149.628 137.244C149.082 137.554 148.517 137.828 147.936 138.065L146.834 138.552C145.859 139.039 144.911 139.603 143.988 140.167L143.295 140.603L141.449 141.68C139.988 142.526 138.475 143.398 137.065 144.398C136.347 144.885 135.578 145.27 134.783 145.706C133.691 146.228 132.652 146.855 131.68 147.577C129.811 148.984 127.83 150.236 125.758 151.321L124.706 151.91C124.014 152.269 123.347 152.628 122.681 153.039L122.142 153.398C121.852 153.524 121.591 153.707 121.373 153.936C120.732 154.372 120.117 154.808 119.45 155.192C119.12 155.364 118.777 155.51 118.425 155.628C117.814 155.856 117.23 156.149 116.681 156.5L115.502 157.346C114.963 157.756 114.399 158.167 113.835 158.526C112.621 159.207 111.318 159.716 109.963 160.038C109.117 160.269 108.245 160.526 107.399 160.833L106.271 161.32C105.761 161.58 105.229 161.794 104.681 161.961C104.04 162.115 103.374 162.243 102.733 162.346L101.066 162.679C100.196 162.903 99.3402 163.177 98.5023 163.5L97.8613 163.731C96.9305 164.01 95.9612 164.14 94.9896 164.115H94.7331H93.0153H90.8871C90.0277 164.097 89.1687 164.166 88.3231 164.32C86.4231 164.822 84.6669 165.762 83.1951 167.064L82.5798 167.551C82.1182 167.884 81.6568 168.166 81.1696 168.474C80.7616 168.697 80.3677 168.946 79.9901 169.217C79.3725 169.642 78.7818 170.105 78.2211 170.602L77.5801 171.14C75.9901 172.325 74.2695 173.323 72.4521 174.115L70.7854 174.91C69.8705 175.293 69.0088 175.793 68.2214 176.397C67.7659 176.758 67.3453 177.162 66.9651 177.602C66.5862 178.011 66.1745 178.388 65.7343 178.73C65.0209 179.261 64.405 179.912 63.9139 180.653C63.6641 181.126 63.2416 181.484 62.7344 181.653C62.3504 181.802 62.0014 182.029 61.7089 182.32C61.5102 182.488 61.3296 182.677 61.1704 182.884C60.9653 183.089 60.8371 183.243 60.6833 183.371L60.0936 183.704L59.2988 184.191C58.7987 184.53 58.3192 184.898 57.8629 185.294C57.4066 185.69 56.9272 186.058 56.4271 186.396C55.4528 187.037 54.5041 187.704 53.5298 188.396C52.5554 189.089 51.735 189.678 50.8119 190.294C49.8889 190.909 48.453 191.935 47.2736 192.858C46.4788 193.447 45.7096 194.037 44.8891 194.601C43.1181 195.774 41.2866 196.852 39.4021 197.832L38.8893 198.114C37.0338 199.076 35.3102 200.274 33.7613 201.678C33.3819 202.061 33.0225 202.463 32.6844 202.883C32.4059 203.226 32.1061 203.551 31.7869 203.857C31.4526 204.137 31.0704 204.354 30.6588 204.498C30.0723 204.708 29.5197 205.001 29.0179 205.37C28.582 205.729 28.1974 206.088 27.8128 206.472C27.4066 206.882 26.9694 207.259 26.5051 207.601C25.6808 208.178 24.8248 208.709 23.9411 209.19L23.6334 209.395C22.095 210.267 20.6336 211.242 19.1721 212.216L17.5054 213.318L14.4543 215.216C12.306 216.454 10.2419 217.833 8.2751 219.344L7.8136 219.703L7.58277 223.805L9.86477 221.908C11.0548 220.925 12.3051 220.017 13.6083 219.19L17.8388 216.472C20.4028 214.78 23.2488 213.011 25.9923 211.344C26.9982 210.775 27.966 210.141 28.8896 209.447C29.2815 209.141 29.65 208.807 29.9921 208.447C30.3325 208.039 30.7401 207.692 31.1973 207.421L31.6331 207.267C32.3863 206.998 33.0821 206.589 33.6843 206.062C34.144 205.632 34.5724 205.169 34.9663 204.678C35.274 204.319 35.5818 203.96 35.9151 203.626C37.4656 202.26 39.1899 201.105 41.0431 200.191C43.185 199.065 45.2493 197.797 47.2223 196.396L53.2476 192.14L54.5809 191.14L55.9143 190.14L57.1193 189.371C57.709 189.012 58.2732 188.653 58.8116 188.268C59.2134 187.982 59.5985 187.674 59.9653 187.345C60.3812 186.975 60.8273 186.641 61.2986 186.345L61.6063 186.166C61.9818 185.962 62.3418 185.73 62.6831 185.473C62.9244 185.27 63.1397 185.037 63.3241 184.781C63.4037 184.666 63.4987 184.563 63.6063 184.473C63.8021 184.311 64.0174 184.173 64.2473 184.063C64.8879 183.808 65.4526 183.393 65.8881 182.858C66.0163 182.653 66.1702 182.448 66.2728 182.243L66.5291 181.884C66.7748 181.59 67.0595 181.331 67.3753 181.114L67.8881 180.73C68.3064 180.363 68.7005 179.969 69.0676 179.55C69.358 179.217 69.6753 178.909 70.0163 178.627C70.8071 178.043 71.6686 177.56 72.5803 177.192L73.7341 176.653C75.7545 175.804 77.6586 174.701 79.4004 173.371C80.3491 172.602 81.3491 171.91 82.3491 171.217C83.3491 170.525 83.9901 170.089 84.7849 169.474C86.3662 167.966 88.4252 167.059 90.6051 166.91H90.8871H92.8871H95.0664C95.7439 166.918 96.421 166.875 97.0921 166.782C97.9064 166.636 98.7049 166.413 99.4766 166.115C99.7702 165.997 100.07 165.894 100.374 165.807C101.425 165.491 102.496 165.243 103.579 165.064H103.912C104.911 164.922 105.891 164.673 106.835 164.32L107.528 164.038C108.012 163.807 108.508 163.601 109.015 163.423C108.591 163.925 108.276 164.51 108.092 165.141C108.092 165.32 108.092 165.525 107.861 165.756C107.63 165.987 107.861 165.961 106.938 166.089C106.503 166.158 106.074 166.261 105.656 166.397C104.374 166.91 103.092 167.551 101.964 168.115C101.349 168.402 100.806 168.822 100.374 169.346C100.182 169.537 99.9539 169.687 99.7029 169.789C99.4519 169.89 99.1831 169.94 98.9124 169.935H97.1178C96.4989 169.919 95.8821 170.014 95.2973 170.217C94.5534 170.525 93.8682 170.959 93.2718 171.499C92.9916 171.746 92.6913 171.969 92.3743 172.166C91.1405 172.911 89.8349 173.529 88.4771 174.012L87.2719 174.422C86.3892 174.7 85.5315 175.052 84.7079 175.474C83.99 175.833 83.3234 176.269 82.6311 176.704C82.0689 177.093 81.4869 177.453 80.8876 177.781C79.8107 178.345 78.8108 179.012 77.8364 179.627L76.9646 180.191C76.2807 180.629 75.57 181.023 74.8366 181.371C74.2982 181.653 73.7852 181.909 73.2724 182.217C72.1101 182.897 71.1121 183.825 70.3496 184.935C69.5796 185.925 68.7215 186.843 67.7856 187.678L67.5034 187.96C66.9137 188.55 66.3753 189.191 65.8113 189.806C65.2472 190.422 64.9908 190.755 64.5549 191.191L63.3498 192.422C62.7344 193.063 62.1191 193.678 61.5294 194.319C60.6518 195.356 59.6629 196.293 58.5808 197.114C57.2988 198.037 56.3245 198.78 55.4271 199.55C54.2989 200.531 53.0699 201.391 51.7606 202.114C50.93 202.527 50.0735 202.887 49.1966 203.19C48.6325 203.396 48.0684 203.626 47.5299 203.883C46.6922 204.228 45.8362 204.528 44.9659 204.78L43.5558 205.242C42.6013 205.638 41.7311 206.212 40.9918 206.934L40.4533 207.395C39.7866 207.934 39.12 208.421 38.4278 208.934C36.7583 210.079 35.2192 211.403 33.8381 212.882C33.2484 213.549 32.71 214.267 32.1716 214.985C31.6332 215.703 31.5562 215.78 31.2229 216.164C30.8896 216.549 30.505 217.036 30.1204 217.446C29.7358 217.857 29.1205 218.575 28.6589 219.164C27.7894 220.363 26.9931 221.613 26.2744 222.908C25.5076 224.238 24.651 225.514 23.7104 226.728C22.172 228.651 20.4541 230.497 18.8131 232.292L17.6081 233.6C16.6448 234.636 15.7376 235.723 14.8903 236.856C14.5684 237.328 14.1894 237.758 13.7621 238.138C13.5701 238.28 13.3525 238.385 13.1211 238.445C12.7145 238.596 12.3271 238.794 11.9673 239.035C11.6383 239.274 11.3373 239.549 11.0699 239.856L10.6596 240.24C10.0524 240.729 9.39984 241.158 8.71094 241.522L7.58277 242.138C6.68944 242.612 5.83244 243.152 5.01877 243.753C4.83504 243.873 4.66343 244.01 4.5061 244.163L4.1471 244.445L3.99326 245.138L5.2496 245.522L3.99326 245.266L3.30093 248.753L6.32643 246.189C6.54785 245.979 6.78825 245.79 7.04443 245.625C7.68543 245.189 8.40332 244.804 9.0956 244.42L10.5828 243.599C11.1937 243.239 11.7844 242.845 12.3519 242.42C12.6124 242.203 12.8605 241.972 13.0954 241.727C13.3262 241.467 13.594 241.243 13.8903 241.061L14.3004 240.907C14.6811 240.775 15.0432 240.594 15.3774 240.368C15.9843 239.902 16.5198 239.349 16.9671 238.728C18.2747 237.035 19.7362 235.42 21.1464 233.882L23.1206 231.677C25.0796 229.602 26.7997 227.314 28.2486 224.856C28.8896 223.703 29.5819 222.523 30.3254 221.446C30.8614 220.701 31.4438 219.99 32.0691 219.318L33.0946 218.113L34.3253 216.549C34.7355 216.036 35.1459 215.498 35.5818 214.985C36.3858 214.028 37.2978 213.168 38.2996 212.421L41.9404 209.575L42.7096 208.959C43.3389 208.348 44.0903 207.876 44.9146 207.575C46.1293 207.236 47.32 206.817 48.4786 206.319C49.0427 206.062 49.6324 205.831 50.1964 205.626C51.1318 205.274 52.0476 204.872 52.9399 204.421C54.2109 203.751 55.4207 202.97 56.5553 202.088L57.2219 201.524C58.0937 200.806 58.9654 200.114 59.7859 199.473C61.3292 198.433 62.7485 197.22 64.0164 195.857ZM132.219 93.0923H133.603L133.937 92.8616C134.34 92.6023 134.77 92.3874 135.219 92.2206L135.885 91.9386C136.549 91.6157 137.169 91.2108 137.731 90.7335L138.296 90.3232C138.81 89.9986 139.373 89.7564 139.962 89.6053L140.654 89.3489C141.167 89.1951 141.654 88.9899 142.167 88.7848L143.526 88.272L144.372 87.99C144.911 87.8289 145.442 87.6406 145.962 87.4259L147.064 86.9387C147.653 86.6296 148.272 86.3806 148.91 86.1952L149.603 86.0157C150.384 85.9551 151.135 85.685 151.775 85.2337C152.416 84.7825 152.923 84.1669 153.244 83.4517C153.372 83.1697 153.449 82.8876 153.551 82.6056C153.677 82.186 153.849 81.7818 154.064 81.4005C154.429 80.8615 154.869 80.3779 155.372 79.9647L155.833 79.5288C157.237 78.1758 158.556 76.7372 159.782 75.2213C160.139 74.7579 160.572 74.359 161.064 74.0418C161.643 73.7465 162.267 73.5473 162.91 73.4521L163.525 73.2983C164.287 73.1029 165.026 72.8279 165.73 72.4778L167.038 71.9394C167.781 71.606 168.525 71.2983 169.269 70.9137C170.36 70.3133 171.414 69.6454 172.422 68.9138L174.089 67.7857C175.186 67.1312 176.316 66.5322 177.473 65.9909L179.345 65.0935C180.068 64.7444 180.824 64.4695 181.601 64.273C182.212 64.0898 182.798 63.8315 183.345 63.5038L183.986 63.1705C185.55 62.4269 187.242 61.8372 188.858 61.2475L189.729 60.9398C190.627 60.6321 191.499 60.2475 192.293 59.8885C193.088 59.5296 194.293 59.0424 195.319 58.7091L197.293 58.145L197.857 57.9912C198.421 57.9912 198.96 57.6835 199.498 57.504L200.755 57.0938L202.19 56.7605L203.524 56.4528C204.407 56.1975 205.265 55.8628 206.088 55.4528L206.395 55.3246C207.251 54.9098 208.169 54.6411 209.113 54.5298C209.994 54.447 210.832 54.1083 211.523 53.5555C212.627 52.9125 213.864 52.535 215.139 52.4529C215.831 52.4529 216.523 52.2222 217.19 52.0684L217.856 51.8889C219.985 51.3504 222.113 50.812 224.215 50.2223L225.01 49.9915C225.831 49.7607 226.625 49.5556 227.395 49.2736C228.099 49.032 228.77 48.7048 229.394 48.2993L230.112 47.889C230.437 47.7604 230.771 47.6576 231.112 47.5814C231.579 47.4955 232.035 47.3579 232.471 47.1711C233.251 46.7395 233.905 46.1121 234.369 45.3507L234.83 44.6584L234.497 43.9405L234.061 43.1969H232.625L232.24 43.7097C231.676 44.4533 231.471 44.6584 230.984 44.7609C230.084 44.9231 229.217 45.2351 228.42 45.684C226.972 46.4756 225.418 47.0542 223.805 47.4019L223.318 47.5301C222.241 47.8377 221.138 48.0942 220.061 48.3762L217.215 49.0941C216.446 49.2992 215.677 49.4018 214.908 49.53C213.752 49.6795 212.611 49.9283 211.498 50.2735C210.964 50.4896 210.457 50.7648 209.985 51.094L209.395 51.4786C209.042 51.6135 208.67 51.6914 208.293 51.7094C207.78 51.7479 207.272 51.8425 206.78 51.9914C206.062 52.2478 205.395 52.5555 204.703 52.8632L204.37 53.017C203.421 53.4138 202.433 53.7061 201.421 53.8888C200.242 54.1452 199.114 54.5042 197.96 54.8375C197.267 55.0682 196.55 55.2733 195.857 55.4528C194.529 55.8496 193.228 56.3291 191.96 56.8887L190.037 57.6322L187.986 58.4014C186.806 58.8117 185.627 59.2219 184.473 59.6834C183.319 60.145 182.755 60.4014 181.909 60.8372L181.601 61.0167C181.37 61.1516 181.13 61.2715 180.884 61.3757H180.345C180.058 61.4199 179.775 61.4885 179.499 61.5808C178.912 61.7936 178.345 62.0597 177.807 62.3756L177.345 62.6064L174.525 63.9653C173.217 64.6556 171.957 65.4352 170.756 66.2985L169.576 67.0934C168.073 68.0117 166.495 68.8008 164.859 69.4523L164.294 69.7087C163.47 70.0626 162.611 70.329 161.73 70.5035C160.764 70.6854 159.841 71.051 159.013 71.5804C158.115 72.2585 157.328 73.0715 156.679 73.9905C156.372 74.3751 156.064 74.7854 155.731 75.1444C155.397 75.5033 154.756 76.093 154.269 76.5545C153.342 77.3329 152.484 78.1908 151.705 79.1185C151.175 79.9069 150.769 80.7715 150.5 81.6825C150.412 81.9892 150.283 82.2825 150.116 82.5543C149.807 82.7245 149.467 82.8292 149.116 82.862C147.701 83.2203 146.319 83.7007 144.988 84.2978C144.244 84.5799 143.526 84.8875 142.783 85.1439L140.885 85.8619L139.757 86.2721L138.962 86.5541C138.154 86.7777 137.378 87.1053 136.655 87.5285L135.757 88.1951C135.408 88.4963 135.03 88.7625 134.629 88.9899L133.962 89.2976C133.278 89.563 132.632 89.9164 132.039 90.3489L131.27 91.0412L131.578 91.9129L132.219 93.0923ZM256.137 197.986H255.419C254.227 197.945 253.042 198.182 251.958 198.678C250.547 199.345 249.137 199.985 247.701 200.55C247.112 200.78 246.522 200.934 245.907 201.114C245.185 201.306 244.475 201.537 243.778 201.806C242.498 202.334 241.249 202.934 240.035 203.601L238.83 204.216C237.884 204.654 236.975 205.168 236.112 205.754C235.868 205.962 235.591 206.127 235.292 206.242H234.933C234.593 206.312 234.259 206.406 233.933 206.524C233.4 206.795 232.908 207.14 232.471 207.549C231.974 207.932 231.421 208.235 230.83 208.447C230.17 208.72 229.494 208.951 228.805 209.139C227.204 209.565 225.687 210.258 224.318 211.19C223.571 211.78 222.877 212.432 222.241 213.139L221.651 213.78C220.841 214.678 219.985 215.534 219.087 216.344C218.104 217.166 217.018 217.855 215.857 218.395C214.934 218.831 214.062 219.369 213.164 219.882L212.19 220.421C211.51 220.812 210.808 221.163 210.088 221.472L208.523 222.19L208.216 222.369C207.754 222.63 207.264 222.837 206.754 222.985C206.391 223.069 206.023 223.129 205.652 223.164H204.96C202.147 223.703 199.507 224.917 197.268 226.702C196.037 227.6 195.063 228.266 194.037 228.882C192.896 229.522 191.807 230.25 190.781 231.061C189.883 231.826 189.027 232.64 188.217 233.497C187.253 234.563 186.188 235.533 185.037 236.394C184.557 236.724 184.051 237.016 183.524 237.266C182.986 237.548 182.448 237.856 181.935 238.189C180.988 238.82 180.127 239.57 179.371 240.42C179.111 240.702 178.872 241.002 178.653 241.317C178.32 241.851 177.885 242.313 177.371 242.676C177.038 242.825 176.683 242.92 176.32 242.958C175.659 243.047 175.017 243.246 174.422 243.548C174.128 243.727 173.846 243.924 173.576 244.138L173.192 244.42C172.798 244.672 172.387 244.895 171.961 245.086L171.628 245.24C170.86 245.64 170.138 246.122 169.474 246.676C169.064 246.984 168.653 247.291 168.243 247.548L167.448 248.009C166.593 248.448 165.807 249.009 165.115 249.676C164.769 250.06 164.443 250.462 164.141 250.881C163.802 251.378 163.406 251.835 162.961 252.24C162.448 252.65 161.884 252.983 161.346 253.342C160.728 253.682 160.137 254.068 159.577 254.496C158.492 255.355 157.519 256.345 156.679 257.445C155.817 258.609 155.07 259.854 154.449 261.163C153.989 262.119 153.466 263.044 152.885 263.932C152.628 264.291 152.372 264.675 152.09 265.034C151.808 265.393 151.115 266.419 150.68 267.137C150.028 268.272 149.462 269.455 148.987 270.675V270.983C148.386 272.348 147.881 273.753 147.475 275.188C147.173 276.184 146.751 277.139 146.218 278.034L145.782 278.854C145.151 280.113 144.719 281.463 144.5 282.854V283.444C144.5 283.854 144.347 284.264 144.244 284.649C144.168 284.948 144.065 285.24 143.936 285.521C143.808 285.854 143.68 286.187 143.577 286.546C143.339 287.597 143.261 288.677 143.347 289.751V290.546V291.905H144.629H146.013V289.828C145.924 288.855 146.011 287.873 146.27 286.931C146.643 285.761 146.951 284.571 147.193 283.367V282.957C147.435 281.747 147.876 280.585 148.5 279.521C149.229 278.324 149.782 277.029 150.141 275.675C150.481 274.51 150.9 273.371 151.398 272.265L151.577 271.854C152.068 270.557 152.686 269.312 153.423 268.137C153.756 267.65 154.09 267.162 154.449 266.701C154.808 266.239 155.269 265.573 155.628 264.983C156.063 264.284 156.448 263.556 156.782 262.803C156.987 262.393 157.167 261.983 157.397 261.598C158.54 259.362 160.246 257.463 162.346 256.086L162.859 255.778C163.866 255.218 164.79 254.519 165.602 253.701C165.935 253.353 166.235 252.976 166.5 252.573C166.853 252.048 167.285 251.581 167.782 251.189L169.012 250.445C169.678 250.074 170.32 249.663 170.935 249.214L171.499 248.753L172.345 248.112L173.243 247.676L174.038 247.291L175.115 246.599C175.535 246.246 176.024 245.984 176.55 245.83C177.657 245.74 178.711 245.321 179.576 244.625C180.095 244.131 180.567 243.59 180.986 243.009C181.242 242.676 181.499 242.343 181.781 242.035C182.446 241.317 183.215 240.704 184.063 240.215L184.858 239.779C185.712 239.337 186.527 238.822 187.294 238.24C188.315 237.451 189.283 236.594 190.191 235.676L190.832 235.035C191.419 234.375 192.053 233.758 192.729 233.189C193.549 232.567 194.405 231.993 195.293 231.471L195.986 231.061C196.832 230.548 197.652 229.984 198.55 229.395C199.89 228.403 201.324 227.544 202.831 226.831C203.984 226.383 205.191 226.09 206.421 225.959C207.606 225.741 208.749 225.334 209.805 224.754L211.395 224.01C212.267 223.6 213.113 223.19 213.959 222.703C214.805 222.215 216.267 221.395 217.472 220.805C219.764 219.577 221.821 217.954 223.549 216.01C223.801 215.758 224.041 215.493 224.266 215.216C224.823 214.575 225.441 213.991 226.113 213.472C227.007 212.869 227.994 212.419 229.035 212.139L229.728 211.908C230.548 211.626 231.394 211.37 232.292 211.036C232.903 210.779 233.487 210.462 234.035 210.088C234.234 209.957 234.423 209.811 234.599 209.652C234.825 209.427 235.096 209.252 235.394 209.139H235.779C235.982 209.115 236.18 209.063 236.369 208.985C236.975 208.779 237.539 208.466 238.035 208.062C238.695 207.621 239.389 207.236 240.112 206.908L241.291 206.319C242.495 205.641 243.736 205.034 245.009 204.498C245.395 204.364 245.789 204.252 246.189 204.165L246.881 203.985C247.573 203.78 248.291 203.498 249.137 203.165C250.471 202.626 251.701 202.062 253.06 201.447C253.932 201.035 254.891 200.842 255.855 200.883H256.214L257.547 200.678V198.114L256.137 197.986ZM256.675 187.448L256.111 187.704C255.496 187.93 254.923 188.259 254.419 188.678C253.573 189.334 252.63 189.853 251.624 190.217L250.265 190.729C249.957 190.823 249.639 190.884 249.317 190.909H248.65C247.948 191.046 247.294 191.364 246.753 191.832C246.569 191.998 246.361 192.136 246.137 192.242C245.944 192.288 245.742 192.288 245.548 192.242C245.279 192.26 245.013 192.303 244.753 192.37C244.191 192.496 243.66 192.732 243.189 193.063C242.41 193.536 241.606 193.964 240.779 194.345L240.112 194.652L236.445 196.524L233.881 197.883C231.958 198.857 230.061 199.652 228.036 200.447L227.446 200.703C226.677 201.013 225.946 201.408 225.266 201.883C224.507 202.515 223.88 203.291 223.42 204.165L223.266 204.447C223.115 204.762 222.9 205.043 222.635 205.273C222.371 205.502 222.062 205.675 221.728 205.78C221.228 205.884 220.723 205.961 220.215 206.011L218.908 206.19L218.164 206.319C217.421 206.447 216.703 206.575 215.959 206.754C214.791 207.099 213.671 207.59 212.626 208.216L211.267 208.959C209.472 209.934 207.6 210.959 205.806 212.139C204.703 212.857 203.754 213.549 202.908 214.216L202.344 214.728C201.908 215.113 201.319 215.652 200.96 215.652H200.703H199.447V216.831V218.062L200.626 218.267H201.114C201.895 218.226 202.646 217.949 203.267 217.472C203.729 217.139 204.19 216.754 204.626 216.395L205.652 215.549C207.494 214.173 209.45 212.955 211.498 211.908L213.062 211.062C214.441 210.225 215.936 209.595 217.497 209.19C218.497 208.985 219.523 208.78 220.523 208.677H220.856C221.734 208.631 222.598 208.45 223.42 208.139C224.376 207.708 225.168 206.979 225.677 206.062L225.959 205.575C226.302 204.894 226.792 204.299 227.395 203.831C228.066 203.446 228.769 203.12 229.497 202.857L229.805 202.729C230.933 202.293 232.035 201.806 233.138 201.293C234.753 200.524 236.369 199.703 237.958 198.883L239.753 197.96C240.804 197.447 241.83 196.909 242.881 196.422H243.189C243.552 196.268 243.903 196.088 244.24 195.883L244.727 195.575C244.995 195.367 245.299 195.21 245.625 195.114C245.787 195.1 245.95 195.1 246.112 195.114C246.605 195.1 247.092 194.996 247.548 194.806C247.936 194.618 248.291 194.366 248.599 194.063L248.983 193.781C249.232 193.666 249.505 193.613 249.778 193.627H250.471C251.045 193.513 251.605 193.332 252.137 193.088L252.906 192.806C253.888 192.464 254.826 192.008 255.701 191.447L256.368 190.909C256.545 190.721 256.753 190.565 256.983 190.447L258.034 189.96L258.701 189.473L258.983 186.448L256.675 187.448ZM146.167 201.55C146.551 201.021 146.894 200.464 147.193 199.883L147.449 199.447C147.757 198.909 148.09 198.37 148.449 197.857L148.731 197.447C149.698 196.053 150.434 194.512 150.91 192.883C151.116 192.191 151.295 191.499 151.474 190.806C151.965 188.477 152.831 186.243 154.038 184.191C154.699 183.298 155.475 182.496 156.346 181.807L157.397 180.884L158.115 180.191C159.09 179.294 160.038 178.397 161.064 177.627C162.09 176.858 163.628 175.73 164.782 174.807L165.218 174.499C166.041 173.861 166.821 173.167 167.551 172.422C167.884 172.089 168.217 171.756 168.576 171.448C169.213 170.888 169.92 170.414 170.679 170.038C171.331 169.687 171.965 169.302 172.576 168.884C173.532 168.12 174.448 167.307 175.32 166.448L176.499 165.32C177.807 164.166 179.063 162.961 180.345 161.731C180.547 161.536 180.687 161.286 180.746 161.012C180.806 160.738 180.782 160.453 180.678 160.192L180.217 159.295H179.345H178.73L178.345 159.679C177.063 160.961 175.781 162.243 174.371 163.423L173.217 164.5C172.443 165.346 171.583 166.111 170.653 166.782C170.243 167.064 169.807 167.294 169.397 167.525C168.402 168.035 167.472 168.664 166.628 169.397L165.807 170.192C165.013 171.018 164.156 171.781 163.243 172.474C161.91 173.448 160.679 174.422 159.295 175.474C157.91 176.525 157.372 177.166 156.449 178.038L155.5 178.935L154.577 179.73C153.634 180.492 152.775 181.351 152.013 182.294C151.286 183.359 150.7 184.514 150.269 185.73L150.013 186.371C149.498 187.667 149.095 189.005 148.808 190.37L148.603 191.191C148.238 192.738 147.614 194.212 146.757 195.55L146.295 196.216L145.423 197.524L144.911 198.473C144.705 198.832 144.526 199.191 144.295 199.524C143.434 200.66 142.385 201.64 141.193 202.421C140.293 203.121 139.437 203.874 138.629 204.678L137.578 205.626C137.065 206.088 136.526 206.498 135.988 206.934C135.212 207.508 134.476 208.134 133.783 208.806L132.424 210.139C131.757 210.857 131.065 211.549 130.321 212.216C129.578 212.882 129.27 213.216 128.732 213.754C128.157 214.368 127.549 214.95 126.911 215.498C125.811 216.475 124.868 217.616 124.117 218.882C123.758 219.421 123.373 219.933 122.988 220.446C122.347 221.344 121.681 222.241 121.117 223.215C120.783 223.754 120.476 224.318 120.168 224.882C119.694 225.83 119.145 226.739 118.527 227.6C118.168 228.113 117.758 228.625 117.348 229.113C116.705 229.864 116.106 230.652 115.553 231.471L114.604 232.984C113.989 233.958 113.399 234.933 112.732 235.856C112.066 236.779 111.861 236.984 111.399 237.522C110.768 238.243 110.185 239.006 109.656 239.804C109.297 240.343 108.963 240.933 108.63 241.497C108.142 242.388 107.594 243.244 106.989 244.061C106.069 245.145 105.094 246.18 104.066 247.163L103.861 247.343C102.784 248.419 101.784 249.548 100.835 250.624C99.7457 251.93 98.5814 253.171 97.3484 254.342C96.6562 254.958 95.9127 255.547 95.1691 256.137C93.4433 257.371 91.9133 258.857 90.6308 260.547C90.1614 261.215 89.6565 261.857 89.1181 262.47C88.6053 263.06 88.1181 263.65 87.6566 264.265C86.7957 265.538 86.0493 266.885 85.4259 268.29L85.2721 268.649C84.7682 269.511 84.3144 270.402 83.9131 271.316C83.6567 272.06 83.4003 272.803 83.0669 273.547C82.6891 274.32 82.243 275.058 81.7338 275.752L80.7081 277.341L80.5029 277.726C79.7216 278.973 79.0687 280.296 78.5543 281.675C78.1103 283.284 77.9541 284.959 78.0928 286.623C78.2372 288.014 78.0529 289.419 77.5544 290.725C77.2868 291.261 76.9781 291.776 76.6313 292.264C76.3764 292.687 76.1617 293.134 75.9903 293.597C75.9903 293.854 75.7596 294.136 75.6314 294.366C75.0915 295.226 74.4826 296.041 73.8109 296.802L72.6828 298.187C71.6315 299.597 70.5546 300.981 69.5803 302.417L69.1188 303.058C68.3737 304.019 67.7535 305.07 67.2728 306.186C66.8967 307.007 66.4139 307.774 65.8369 308.468C65.4224 308.994 65.0372 309.542 64.6831 310.109C64.0015 311.328 63.1367 312.435 62.1191 313.391L61.4268 314.135L61.7344 314.955L62.1961 315.878H63.6574L64.0164 315.571C65.1884 314.458 66.1907 313.18 66.9908 311.776C67.3031 311.269 67.6455 310.781 68.0163 310.314C68.5616 309.614 69.0585 308.877 69.5034 308.109C69.6703 307.777 69.8159 307.435 69.9393 307.084C70.0263 306.83 70.129 306.581 70.2469 306.34C70.4971 305.94 70.7711 305.554 71.0674 305.186L71.6316 304.443C72.5803 303.084 73.5545 301.725 74.5544 300.417L75.7596 298.93C76.4519 298.058 77.1697 297.212 77.7851 296.366C78.0538 295.938 78.2772 295.482 78.4518 295.007L78.7081 294.392C78.8776 294.082 79.066 293.782 79.2723 293.495C79.503 293.161 79.7081 292.828 79.9133 292.469C80.7603 290.626 81.1053 288.591 80.9133 286.572C80.8461 285.527 80.8977 284.477 81.0671 283.444C81.3886 282.19 81.9079 280.996 82.6054 279.905L82.9644 279.239C83.2978 278.675 83.6567 278.111 84.0413 277.572C84.5616 276.844 85.0326 276.081 85.4514 275.29C85.8491 274.456 86.2001 273.6 86.5028 272.726C86.7267 271.974 87.0009 271.237 87.3233 270.521L87.5539 270.06C88.1199 268.774 88.7798 267.531 89.5283 266.342C89.9535 265.741 90.4159 265.167 90.9128 264.624C91.4512 264.009 91.9641 263.393 92.4256 262.752C93.2236 261.604 94.1919 260.584 95.2973 259.727C97.9706 257.683 100.412 255.353 102.579 252.778C103.538 251.608 104.575 250.503 105.681 249.471C106.865 248.354 107.987 247.173 109.04 245.932C109.715 245.015 110.332 244.056 110.886 243.061L111.579 241.881C112.112 241.077 112.694 240.307 113.322 239.574C113.758 239.087 114.168 238.574 114.553 238.061C115.322 237.035 115.989 235.933 116.655 234.856L117.45 233.6C118.047 232.706 118.698 231.85 119.399 231.036L120.322 229.856C121.067 228.816 121.743 227.728 122.347 226.6C122.578 226.164 122.809 225.728 123.065 225.292C123.706 224.215 124.424 223.215 125.168 222.164L125.86 221.19C126.091 220.882 126.296 220.549 126.501 220.215C126.706 219.882 126.937 219.523 127.193 219.19C127.588 218.689 128.044 218.241 128.552 217.857C129.256 217.264 129.924 216.631 130.552 215.959C131.014 215.472 131.475 215.011 131.962 214.575C132.45 214.139 133.424 213.139 134.142 212.395L135.68 210.882C136.267 210.344 136.883 209.839 137.526 209.37C138.09 208.908 138.654 208.472 139.193 207.985L140.065 207.216C141.052 206.306 142.088 205.451 143.167 204.652C144.329 203.787 145.342 202.739 146.167 201.55Z"
        fill="#EEDAAE"
      />
    </svg>