       <svg
      className=""
      width="243"
      height="261"
      viewBox="0 0 243 261"
      fill="none"
      xmlns="http://www.w3.org/2000/svg"
    >
      <path
        d="M54.332 250.65C55.5628 249.38 56.8935 248.211 58.3113 247.154C59.2852 246.375 60.3049 245.655 61.3649 244.999C62.5622 244.152 63.6771 243.194 64.6948 242.139C66.8778 240.099 68.741 237.742 70.2216 235.147C71.7 232.384 72.985 229.385 74.5602 226.594C75.6796 224.178 77.1204 221.924 78.8434 219.893C80.7778 217.959 82.8918 216.245 84.7847 214.27C86.7661 212.249 88.4001 209.914 89.6207 207.361C90.2839 205.979 91.0024 204.598 91.8453 203.216C92.5387 201.826 93.0851 200.367 93.4757 198.864C93.9455 197.482 94.6777 196.211 95.1752 194.843C95.5773 193.519 95.8958 192.172 96.1285 190.808C96.9805 188.275 98.2103 185.886 99.7762 183.72C101.206 180.991 102.372 178.132 103.258 175.181C103.879 173.768 104.428 172.325 104.902 170.856C105.163 169.328 105.111 167.763 104.75 166.255C104.288 163.74 104.204 161.169 104.502 158.628C104.681 157.247 104.861 155.865 105.068 154.483C105.151 153.848 105.317 153.254 105.441 152.632C105.6 151.766 105.656 150.885 105.607 150.007C105.607 146.912 105.607 143.83 105.745 140.735C105.903 139.178 105.809 137.606 105.469 136.079C105.269 135.529 105.13 134.959 105.054 134.379C105.054 133.62 105.151 132.873 105.054 132.113C104.889 128.908 103.231 125.896 101.683 123.174C100.961 122.084 100.446 120.871 100.163 119.595C99.9144 118.117 99.6104 116.638 99.3479 115.16C99.0854 113.682 98.8919 112.258 98.6017 110.835C98.353 109.647 97.7866 108.569 97.6346 107.353C97.5241 105.915 97.4965 104.471 97.5517 103.029C97.5517 101.44 97.5517 99.8507 97.5517 98.2618C97.5697 96.902 97.7131 95.5468 97.9801 94.2134C98.1211 92.9921 98.4472 91.7994 98.9472 90.6762C99.4228 89.5632 100.051 88.5216 100.813 87.5812C101.644 86.6672 102.525 85.8 103.452 84.9836C104.026 84.5219 104.49 83.937 104.808 83.2722C105.126 82.6073 105.29 81.8795 105.289 81.1425C105.296 79.686 105.158 78.2326 104.875 76.8039C104.329 73.9847 104.038 71.1224 104.004 68.2512C104.004 66.2477 104.087 63.5395 106.187 62.5033C106.906 62.144 107.486 62.5033 108.149 62.8349C109.531 63.5119 111.189 63.277 112.681 63.7744C113.905 64.092 115.146 64.3411 116.398 64.5205C117.78 64.7969 119.162 64.9074 120.543 65.2114C121.925 65.5154 123.307 66.1371 124.688 66.5931C126.07 67.0491 127.452 67.4221 128.833 67.9057C130.123 68.3982 131.382 68.9657 132.606 69.6052C133.989 70.2664 135.415 70.8342 136.875 71.3047C138.24 71.8362 139.657 72.2206 141.103 72.4515C142.407 72.5896 143.723 72.5896 145.027 72.4515C147.512 72.003 150.051 71.9332 152.557 72.2443C155.321 72.8108 157.697 74.759 159.991 76.2788C161.234 77.0941 162.464 77.9645 163.777 78.6554C165.089 79.3462 166.278 79.4844 167.424 80.1614C168.571 80.8385 169.552 81.7366 170.713 82.3722C171.873 83.0077 173.117 83.6433 174.305 84.3618C175.694 85.1684 177.174 85.8084 178.713 86.2686C180.095 86.6969 181.38 87.2219 182.748 87.6503C183.511 87.8642 184.293 88.003 185.083 88.0648C185.73 88.0696 186.376 88.1157 187.017 88.2029C187.496 88.3435 187.959 88.5333 188.399 88.7694C189.228 89.1262 190.121 89.3096 191.024 89.3083C193.704 89.4188 196.095 89.3083 198.388 90.8558C198.922 91.2446 199.508 91.5563 200.129 91.7816C200.673 91.9243 201.204 92.109 201.718 92.3342C202.646 92.8479 203.512 93.4644 204.302 94.1719C205.124 94.8948 205.849 95.7216 206.458 96.6313C207.258 97.824 208.365 98.7786 209.663 99.3947C210.893 100.003 212.123 100.555 213.297 101.274C214.471 101.992 215.715 102.849 216.945 103.609C219.459 105.184 221.988 106.773 224.572 108.224C225.788 108.915 227.045 109.523 228.219 110.255C229.394 110.987 230.237 112.383 231.508 112.203C231.632 112.203 231.687 112.383 231.508 112.397C231.171 112.446 230.826 112.411 230.506 112.295C230.185 112.179 229.898 111.986 229.67 111.733L229.325 111.429C229.905 112.093 230.389 112.811 231.01 113.502C231.814 114.18 232.695 114.759 233.636 115.229C235.542 116.459 235.487 118.863 235.432 120.894C235.363 124.058 235.432 127.222 235.432 130.386C235.432 133.55 235.363 136.894 235.57 140.155C235.777 143.416 235.819 146.594 236.33 149.744C236.565 151.126 236.827 152.507 236.966 153.986C237.104 155.464 237.035 157.136 236.966 158.725C236.966 161.986 236.966 165.233 236.966 168.494C236.931 170.137 237.014 171.781 237.214 173.413C237.435 174.905 237.726 176.383 237.947 177.862C238.375 180.915 238.306 183.969 238.637 187.022C238.969 190.076 240.019 193.309 240.544 196.487C241.045 199.428 241.327 202.402 241.387 205.385C241.387 211.658 240.945 217.986 241.387 224.245C241.829 230.505 243.197 236.404 242.976 242.553C242.839 246.67 242.007 250.734 240.517 254.574C239.135 257.821 236.883 260.57 233.069 260.101C231.601 259.852 230.12 259.686 228.634 259.603C227.086 259.603 225.553 259.341 224.019 259.161C222.613 258.869 221.192 258.652 219.763 258.512C218.283 258.456 216.8 258.512 215.328 258.678C213.86 258.907 212.378 259.041 210.893 259.078C209.461 259.027 208.035 258.879 206.623 258.636C205.076 258.387 203.528 258.042 201.967 257.931C200.471 257.848 198.972 257.848 197.477 257.931C191.112 258.046 184.748 257.69 178.437 256.867C177.055 256.702 175.59 256.867 174.209 256.619C172.827 256.37 171.252 255.831 169.746 255.527C166.584 254.748 163.312 254.523 160.074 254.864C157.049 255.17 154.007 255.276 150.968 255.182C147.787 255.338 144.598 255.302 141.421 255.071C138.271 254.577 135.098 254.24 131.915 254.063C128.64 254.063 125.338 254.325 122.063 254.063C120.529 253.911 119.023 253.676 117.49 253.607C115.956 253.538 114.422 253.607 112.875 253.607C111.327 253.607 109.752 253.316 108.191 253.192C106.629 253.068 105.027 253.04 103.438 253.026C100.218 253.026 96.999 253.109 93.7658 253.026C90.5326 252.943 87.5205 252.515 84.384 252.266C81.2476 252.018 78.0558 252.004 74.8779 252.018C71.7101 251.955 68.5413 252.066 65.3856 252.349C62.4401 252.75 59.4569 252.791 56.5013 252.474C55.9072 252.391 55.313 252.294 54.7327 252.156C54.4563 252.087 53.9037 252.073 53.7655 251.797C53.6274 251.52 54.0833 250.899 54.332 250.65Z"
        fill="#202147"
      />
      <path
        d="M205.159 128.77H204.689H204.399L204.205 128.618C203.404 127.941 202.589 127.236 201.76 126.642L201.428 126.393L200.737 125.868L200.24 125.454C200.059 125.278 199.865 125.116 199.66 124.97C199.34 124.755 198.984 124.601 198.609 124.514C198.125 124.353 197.661 124.135 197.228 123.865C196.405 123.36 195.556 122.899 194.685 122.483C193.785 122.088 192.862 121.747 191.922 121.461C191.02 121.159 190.157 120.751 189.352 120.245C188.578 119.789 187.777 119.388 186.976 118.973C186.139 118.541 185.37 117.987 184.696 117.329C184.022 116.798 183.231 116.438 182.388 116.279C181.913 116.164 181.45 116.002 181.007 115.796C180.665 115.639 180.289 115.573 179.915 115.602H179.514H178.782V114.911V114.179H180.164C180.439 114.177 180.714 114.214 180.979 114.289C181.218 114.363 181.45 114.461 181.67 114.58C181.835 114.661 182.006 114.73 182.181 114.787L182.526 114.884C183.207 115.041 183.869 115.268 184.502 115.561C185.007 115.826 185.472 116.161 185.884 116.556C186.146 116.799 186.428 117.021 186.727 117.219C187.174 117.484 187.635 117.724 188.109 117.937C188.482 118.117 188.855 118.296 189.214 118.504L189.863 118.891C190.482 119.275 191.128 119.612 191.798 119.899C192.212 120.065 192.641 120.203 193.055 120.341C193.47 120.48 194.119 120.687 194.63 120.908C195.54 121.291 196.43 121.72 197.297 122.193L197.767 122.469C198.037 122.64 198.319 122.792 198.609 122.925L199.079 123.077C199.374 123.152 199.66 123.253 199.936 123.381C200.382 123.622 200.795 123.919 201.166 124.265C201.539 124.597 201.939 124.901 202.34 125.205L202.616 125.426C203.503 126.067 204.347 126.764 205.145 127.512L205.49 127.899L205.325 128.328L205.159 128.77ZM208.502 167.844C208.185 167.499 207.867 167.153 207.535 166.822C207.204 166.49 206.844 166.103 206.499 165.717C206.154 165.33 206.126 165.288 205.919 165.081L205.352 164.514C204.97 164.164 204.614 163.785 204.288 163.381L204.067 163.077C203.796 162.658 203.449 162.293 203.045 162C202.741 161.82 202.423 161.654 202.105 161.502C201.736 161.323 201.376 161.125 201.027 160.908L200.419 160.535C199.286 159.817 198.14 159.153 196.993 158.421C196.557 158.17 196.093 157.971 195.611 157.827L194.934 157.592C194.234 157.336 193.555 157.027 192.903 156.666C192.558 156.476 192.226 156.263 191.908 156.031L191.659 155.837C191.541 155.722 191.406 155.624 191.259 155.547C191.095 155.489 190.921 155.466 190.748 155.478H189.988C189.836 155.492 189.683 155.492 189.532 155.478C189.176 155.437 188.83 155.334 188.509 155.174C188.29 155.04 188.095 154.872 187.929 154.677L187.722 154.469C187.538 154.354 187.344 154.256 187.141 154.179L186.948 154.11L186.354 153.834L185.76 153.544C185.512 153.463 185.257 153.403 185 153.364H184.862C184.567 153.327 184.289 153.208 184.06 153.019C183.737 152.685 183.513 152.269 183.411 151.817V151.665C183.411 151.665 183.273 151.333 182.485 150.78C182.225 150.625 181.947 150.504 181.656 150.421C181.274 150.304 180.908 150.142 180.564 149.937C180.219 149.689 179.932 149.368 179.722 148.998C179.628 148.842 179.522 148.694 179.404 148.556C178.921 148.034 178.344 147.608 177.704 147.298C177.419 147.202 177.162 147.036 176.958 146.815C176.212 146.331 175.452 145.903 174.692 145.433L174.14 145.101C173.026 144.466 171.951 143.764 170.92 143.001C170.484 142.698 170.022 142.434 169.538 142.214C168.988 141.958 168.465 141.648 167.977 141.288C167.644 141.049 167.293 140.837 166.927 140.652L166.471 140.404L165.241 139.671L164.564 139.271C164.118 139.001 163.657 138.756 163.183 138.538C162.489 138.219 161.819 137.849 161.179 137.433C160.668 137.088 160.115 136.797 159.535 136.48C158.955 136.162 158.568 135.968 158.153 135.678C157.76 135.436 157.354 135.214 156.937 135.015C156.233 134.721 155.565 134.345 154.948 133.896C154.569 133.626 154.166 133.39 153.746 133.191L153.524 133.081C153.249 132.936 152.986 132.77 152.737 132.583C152.509 132.4 152.258 132.246 151.991 132.127C151.619 131.99 151.226 131.92 150.83 131.92H150.264C149.545 131.819 148.82 131.763 148.094 131.754H144.903C144.615 131.749 144.327 131.777 144.046 131.837C143.201 132.013 142.339 132.096 141.476 132.086H140.288H139.265C138.42 132.109 137.574 132.058 136.737 131.934L135.507 131.74C134.603 131.61 133.711 131.407 132.84 131.132C131.705 130.804 130.648 130.249 129.732 129.502C129.368 129.198 128.958 128.955 128.516 128.784L127.963 128.645C127.599 128.579 127.243 128.477 126.899 128.341C126.329 128.066 125.708 127.911 125.075 127.885H124.301C123.832 127.885 123.362 127.885 122.92 127.885C121.692 127.747 120.477 127.511 119.286 127.181L118.719 127.043C118.304 126.944 117.893 126.824 117.49 126.683C117.144 126.559 116.799 126.393 116.467 126.241C116.136 126.089 115.914 125.979 115.638 125.868C114.904 125.604 114.151 125.396 113.386 125.246C112.861 125.122 112.336 125.012 111.825 124.86L111.465 124.749C110.488 124.554 109.57 124.133 108.785 123.519L108.398 123.188L108.564 122.732L108.757 122.248H109.517L109.697 122.4C110.579 122.978 111.572 123.364 112.612 123.533L113.317 123.699L114.215 123.92C115.162 124.114 116.088 124.401 116.978 124.777C119.392 125.866 122.013 126.422 124.661 126.407H124.827C125.408 126.387 125.989 126.448 126.554 126.587C126.833 126.672 127.105 126.778 127.369 126.904C127.617 127.023 127.876 127.115 128.143 127.181L128.419 127.25C128.841 127.31 129.252 127.436 129.635 127.623C130.059 127.846 130.457 128.115 130.823 128.424L131.182 128.687C132.124 129.32 133.188 129.748 134.305 129.944C134.928 130.086 135.561 130.183 136.198 130.234C136.537 130.264 136.874 130.314 137.207 130.386C137.498 130.449 137.793 130.491 138.091 130.511H138.367H139.03H139.749H140.868H141.849C142.45 130.501 143.048 130.422 143.631 130.276C144.003 130.19 144.384 130.153 144.764 130.165H148.039C148.568 130.137 149.099 130.137 149.628 130.165H150.195C151.28 130.159 152.348 130.44 153.29 130.98C153.676 131.243 154.091 131.478 154.505 131.713C155.048 132.012 155.573 132.339 156.081 132.694C156.378 132.9 156.698 133.071 157.034 133.205L157.531 133.44C158.007 133.685 158.468 133.957 158.913 134.255L159.245 134.462C159.736 134.766 160.244 135.042 160.765 135.291C161.127 135.463 161.474 135.667 161.801 135.899L162.367 136.259C162.662 136.425 162.966 136.573 163.279 136.701L163.873 136.963C164.399 137.226 164.91 137.53 165.407 137.834L165.78 138.069L166.775 138.649C167.563 139.105 168.378 139.575 169.138 140.114C169.525 140.376 169.939 140.583 170.367 140.818C170.956 141.1 171.516 141.438 172.039 141.827C173.047 142.585 174.114 143.259 175.231 143.844L175.798 144.162C176.171 144.355 176.53 144.549 176.889 144.77L177.179 144.963C177.335 145.031 177.476 145.13 177.594 145.253C177.939 145.488 178.271 145.723 178.63 145.931C178.808 146.023 178.993 146.101 179.183 146.165C179.512 146.288 179.827 146.446 180.122 146.635L180.758 147.091C181.048 147.312 181.352 147.533 181.656 147.727C182.31 148.094 183.012 148.368 183.742 148.542C184.198 148.666 184.668 148.804 185.124 148.97L185.732 149.233C186.007 149.373 186.294 149.488 186.589 149.578C186.934 149.661 187.293 149.73 187.639 149.785L188.537 149.965C189.006 150.085 189.467 150.233 189.919 150.407L190.264 150.532C190.766 150.682 191.288 150.752 191.811 150.739H191.95H192.875H194.022C194.485 150.729 194.948 150.766 195.404 150.849C196.428 151.12 197.374 151.626 198.167 152.328L198.499 152.59C198.748 152.77 198.996 152.922 199.259 153.088C199.479 153.208 199.691 153.342 199.894 153.488C200.227 153.717 200.546 153.967 200.848 154.235L201.193 154.525C202.05 155.163 202.977 155.701 203.957 156.127L204.855 156.556C205.348 156.763 205.812 157.032 206.236 157.357C206.482 157.552 206.709 157.769 206.913 158.007C207.118 158.227 207.34 158.43 207.577 158.615C207.961 158.901 208.293 159.251 208.558 159.651C208.692 159.906 208.92 160.099 209.193 160.19C209.4 160.27 209.588 160.393 209.746 160.549C209.853 160.64 209.95 160.742 210.036 160.853C210.147 160.963 210.216 161.046 210.299 161.115L210.616 161.295L211.045 161.558C211.314 161.74 211.573 161.938 211.819 162.152C212.064 162.365 212.323 162.563 212.592 162.746C213.117 163.091 213.629 163.451 214.154 163.824C214.679 164.197 215.121 164.514 215.618 164.846C216.116 165.178 216.889 165.73 217.525 166.228C217.953 166.546 218.368 166.863 218.81 167.167C219.764 167.799 220.751 168.38 221.767 168.908L222.043 169.06C223.043 169.579 223.972 170.224 224.807 170.981C225.011 171.187 225.205 171.404 225.387 171.63C225.537 171.815 225.699 171.99 225.87 172.155C226.051 172.306 226.257 172.423 226.478 172.501C226.794 172.613 227.092 172.772 227.363 172.97C227.598 173.164 227.805 173.357 228.012 173.565C228.231 173.785 228.467 173.988 228.717 174.173C229.161 174.484 229.622 174.77 230.098 175.029L230.264 175.14C231.093 175.61 231.881 176.135 232.668 176.66L233.567 177.254L235.211 178.276C236.368 178.944 237.481 179.687 238.541 180.501L238.789 180.694L238.914 182.905L237.684 181.882C237.043 181.353 236.369 180.864 235.667 180.418L233.387 178.953C232.005 178.041 230.472 177.088 228.993 176.19C228.451 175.883 227.93 175.542 227.432 175.167C227.221 175.003 227.022 174.823 226.838 174.629C226.654 174.409 226.435 174.222 226.188 174.076L225.953 173.993C225.547 173.848 225.173 173.627 224.848 173.343C224.6 173.112 224.369 172.862 224.157 172.597C223.991 172.404 223.826 172.211 223.646 172.031C222.81 171.295 221.881 170.672 220.882 170.179C219.728 169.573 218.616 168.89 217.553 168.134L214.306 165.841L213.587 165.302L212.869 164.763L212.219 164.349C211.901 164.155 211.597 163.962 211.307 163.754C211.091 163.601 210.883 163.435 210.686 163.257C210.461 163.058 210.221 162.878 209.967 162.718L209.801 162.622C209.599 162.512 209.405 162.387 209.221 162.248C209.091 162.139 208.975 162.013 208.876 161.875C208.833 161.813 208.781 161.758 208.723 161.71C208.618 161.622 208.502 161.548 208.378 161.488C208.033 161.351 207.729 161.127 207.494 160.839C207.425 160.729 207.342 160.618 207.287 160.507L207.148 160.314C207.016 160.156 206.863 160.016 206.692 159.9L206.416 159.692C206.191 159.494 205.978 159.282 205.78 159.057C205.624 158.877 205.453 158.711 205.269 158.559C204.843 158.244 204.379 157.984 203.888 157.786L203.266 157.495C202.177 157.038 201.151 156.444 200.212 155.727C199.701 155.312 199.162 154.939 198.623 154.566C198.084 154.193 197.739 153.958 197.311 153.627C196.458 152.814 195.349 152.325 194.174 152.245H194.022H192.944H191.77C191.405 152.249 191.04 152.226 190.678 152.176C190.24 152.097 189.809 151.977 189.393 151.817C189.235 151.753 189.074 151.698 188.91 151.651C188.343 151.48 187.766 151.347 187.183 151.25H187.003C186.465 151.174 185.937 151.039 185.428 150.849L185.055 150.697C184.794 150.573 184.526 150.462 184.254 150.366C184.482 150.636 184.651 150.952 184.751 151.292C184.751 151.388 184.751 151.499 184.875 151.623C185 151.747 184.875 151.734 185.373 151.803C185.607 151.84 185.838 151.895 186.064 151.969C186.754 152.245 187.445 152.59 188.053 152.894C188.385 153.049 188.677 153.276 188.91 153.558C189.013 153.66 189.136 153.742 189.272 153.796C189.407 153.851 189.552 153.878 189.698 153.875H190.665C190.998 153.866 191.331 153.918 191.646 154.027C192.047 154.193 192.416 154.427 192.737 154.718C192.888 154.851 193.05 154.971 193.221 155.077C193.886 155.479 194.589 155.812 195.321 156.072L195.97 156.293C196.446 156.443 196.908 156.632 197.352 156.86C197.739 157.053 198.098 157.288 198.471 157.523C198.774 157.733 199.088 157.926 199.411 158.103C199.991 158.407 200.53 158.767 201.055 159.098L201.525 159.402C201.893 159.638 202.276 159.85 202.672 160.038C202.962 160.19 203.238 160.328 203.515 160.494C204.141 160.86 204.679 161.36 205.09 161.958C205.505 162.492 205.967 162.987 206.471 163.437L206.623 163.589C206.941 163.906 207.231 164.252 207.535 164.584C207.839 164.915 207.977 165.095 208.212 165.33L208.862 165.993C209.193 166.338 209.525 166.67 209.843 167.015C210.316 167.574 210.849 168.079 211.432 168.521C212.123 169.019 212.648 169.419 213.131 169.834C213.739 170.363 214.401 170.826 215.107 171.216C215.555 171.439 216.016 171.632 216.489 171.796C216.793 171.907 217.097 172.031 217.387 172.169C217.838 172.355 218.3 172.517 218.769 172.653L219.528 172.901C220.043 173.115 220.512 173.424 220.91 173.813L221.2 174.062C221.56 174.352 221.919 174.615 222.292 174.891C223.191 175.508 224.021 176.221 224.765 177.019C225.083 177.378 225.373 177.765 225.663 178.152C225.953 178.539 225.995 178.58 226.174 178.787C226.354 178.995 226.561 179.257 226.769 179.478C226.976 179.699 227.307 180.086 227.556 180.404C228.025 181.05 228.454 181.724 228.841 182.421C229.254 183.138 229.716 183.826 230.223 184.48C231.052 185.516 231.978 186.511 232.862 187.478L233.511 188.183C234.03 188.741 234.519 189.327 234.976 189.938C235.149 190.192 235.354 190.424 235.584 190.629C235.687 190.705 235.805 190.762 235.929 190.794C236.148 190.875 236.357 190.982 236.551 191.112C236.728 191.241 236.891 191.389 237.035 191.554L237.256 191.762C237.583 192.025 237.935 192.256 238.306 192.452L238.914 192.784C239.395 193.04 239.857 193.331 240.295 193.655C240.394 193.719 240.487 193.793 240.572 193.876L240.765 194.028L240.848 194.401L240.171 194.608L240.848 194.47L241.221 196.349L239.591 194.967C239.471 194.854 239.342 194.752 239.204 194.663C238.858 194.428 238.472 194.221 238.099 194.014L237.297 193.572C236.968 193.377 236.65 193.165 236.344 192.936C236.203 192.819 236.07 192.695 235.943 192.563C235.819 192.423 235.674 192.302 235.515 192.204L235.294 192.121C235.089 192.05 234.893 191.952 234.713 191.831C234.386 191.579 234.098 191.281 233.857 190.946C233.152 190.035 232.364 189.164 231.605 188.335L230.541 187.147C229.485 186.029 228.558 184.796 227.777 183.471C227.432 182.85 227.059 182.214 226.658 181.634C226.369 181.232 226.055 180.849 225.718 180.487L225.166 179.838L224.503 178.995C224.282 178.718 224.06 178.428 223.826 178.152C223.392 177.636 222.901 177.173 222.361 176.77L220.399 175.236L219.984 174.905C219.645 174.575 219.24 174.321 218.796 174.159C218.142 173.976 217.5 173.75 216.876 173.482C216.572 173.344 216.254 173.219 215.95 173.109C215.446 172.919 214.952 172.702 214.471 172.459C213.787 172.098 213.135 171.677 212.523 171.202L212.164 170.898C211.694 170.511 211.224 170.138 210.782 169.793C209.951 169.232 209.186 168.578 208.502 167.844ZM171.749 112.466H171.003L170.823 112.341C170.606 112.202 170.375 112.086 170.133 111.996L169.773 111.844C169.416 111.67 169.082 111.452 168.778 111.194L168.474 110.973C168.197 110.798 167.894 110.668 167.576 110.587L167.203 110.448C166.927 110.365 166.665 110.255 166.388 110.144L165.656 109.868L165.2 109.716C164.909 109.629 164.623 109.528 164.343 109.412L163.749 109.15C163.432 108.983 163.098 108.849 162.754 108.749L162.381 108.652C161.96 108.619 161.556 108.474 161.21 108.231C160.865 107.988 160.592 107.656 160.419 107.27C160.35 107.118 160.309 106.966 160.253 106.814C160.186 106.588 160.093 106.371 159.977 106.165C159.781 105.875 159.543 105.614 159.272 105.391L159.024 105.156C158.267 104.427 157.557 103.652 156.896 102.835C156.703 102.585 156.47 102.371 156.205 102.2C155.893 102.04 155.557 101.933 155.21 101.882L154.879 101.799C154.468 101.694 154.07 101.545 153.69 101.357L152.986 101.067C152.585 100.887 152.184 100.721 151.784 100.514C151.195 100.19 150.628 99.8304 150.084 99.4362L149.186 98.8282C148.595 98.4756 147.986 98.1528 147.362 97.861L146.353 97.3775C145.964 97.1894 145.557 97.0412 145.138 96.9353C144.808 96.8366 144.493 96.6974 144.198 96.5208L143.853 96.3412C143.01 95.9405 142.098 95.6227 141.227 95.3049L140.758 95.1391C140.274 94.9733 139.804 94.766 139.376 94.5726C138.947 94.3791 138.298 94.1166 137.745 93.937L136.682 93.633L136.378 93.5501C136.074 93.5501 135.783 93.3843 135.493 93.2876L134.816 93.0665L134.042 92.8869L133.324 92.7211C132.848 92.5835 132.386 92.4032 131.942 92.1822L131.776 92.1132C131.316 91.8896 130.821 91.7448 130.312 91.6848C129.837 91.6402 129.385 91.4577 129.013 91.1598C128.419 90.8133 127.752 90.6099 127.065 90.5656C126.692 90.5656 126.319 90.4413 125.96 90.3584L125.6 90.2617C124.453 89.9715 123.307 89.6814 122.174 89.3636L121.745 89.2392C121.303 89.1149 120.875 89.0043 120.46 88.8523C120.081 88.7222 119.719 88.5458 119.383 88.3273L118.996 88.1062C118.821 88.0369 118.641 87.9815 118.457 87.9404C118.205 87.8942 117.96 87.82 117.725 87.7193C117.304 87.4868 116.952 87.1486 116.702 86.7383L116.453 86.3653L116.633 85.9784L116.868 85.5777H117.642L117.849 85.854C118.153 86.2547 118.263 86.3653 118.526 86.4205C119.011 86.5079 119.478 86.676 119.908 86.918C120.688 87.3445 121.525 87.6563 122.395 87.8437L122.657 87.9128C123.238 88.0786 123.832 88.2168 124.412 88.3687L125.946 88.7556C126.36 88.8662 126.775 88.9214 127.189 88.9905C127.812 89.0711 128.427 89.2051 129.027 89.3912C129.314 89.5076 129.588 89.6559 129.842 89.8333L130.16 90.0406C130.35 90.1133 130.551 90.1553 130.754 90.165C131.03 90.1857 131.304 90.2367 131.569 90.317C131.956 90.4551 132.315 90.6209 132.688 90.7867L132.868 90.8696C133.379 91.0835 133.912 91.241 134.457 91.3394C135.093 91.4776 135.701 91.671 136.322 91.8506C136.695 91.975 137.082 92.0855 137.455 92.1822C138.171 92.396 138.872 92.6545 139.555 92.956L140.592 93.3567L141.697 93.7712C142.333 93.9923 142.968 94.2134 143.59 94.4621C144.212 94.7108 144.516 94.8489 144.972 95.0838L145.138 95.1805C145.262 95.2532 145.391 95.3178 145.524 95.374H145.815C145.969 95.3978 146.122 95.4348 146.27 95.4845C146.587 95.5992 146.892 95.7426 147.182 95.9128L147.431 96.0372L148.951 96.7695C149.656 97.1415 150.335 97.5616 150.982 98.0268L151.618 98.4552C152.428 98.95 153.278 99.3753 154.16 99.7264L154.464 99.8645C154.908 100.055 155.371 100.199 155.846 100.293C156.367 100.391 156.864 100.588 157.31 100.873C157.794 101.239 158.218 101.677 158.568 102.172C158.733 102.379 158.899 102.6 159.079 102.794C159.259 102.987 159.604 103.305 159.866 103.554C160.366 103.973 160.829 104.435 161.248 104.935C161.534 105.36 161.753 105.826 161.898 106.317C161.945 106.482 162.015 106.64 162.105 106.787C162.271 106.879 162.455 106.935 162.644 106.953C163.406 107.146 164.151 107.405 164.868 107.726C165.269 107.878 165.656 108.044 166.056 108.182L167.079 108.569L167.687 108.79L168.115 108.942C168.551 109.063 168.969 109.239 169.359 109.467L169.842 109.827C170.031 109.989 170.234 110.132 170.45 110.255L170.81 110.421C171.178 110.564 171.527 110.754 171.846 110.987L172.26 111.36L172.095 111.83L171.749 112.466ZM104.971 168.991H105.358C106.001 168.969 106.639 169.097 107.224 169.364C107.984 169.723 108.743 170.069 109.517 170.373C109.835 170.497 110.153 170.58 110.484 170.677C110.873 170.78 111.256 170.905 111.631 171.05C112.321 171.335 112.995 171.658 113.648 172.017L114.298 172.349C114.808 172.585 115.298 172.862 115.763 173.178C115.894 173.289 116.044 173.378 116.205 173.44H116.398C116.581 173.478 116.761 173.529 116.937 173.592C117.224 173.738 117.489 173.924 117.725 174.145C117.992 174.351 118.291 174.514 118.609 174.629C118.965 174.776 119.329 174.9 119.7 175.002C120.563 175.231 121.38 175.605 122.118 176.107C122.521 176.425 122.895 176.776 123.238 177.157L123.555 177.502C123.992 177.986 124.453 178.448 124.937 178.884C125.467 179.327 126.052 179.699 126.678 179.989C127.175 180.224 127.645 180.515 128.129 180.791L128.654 181.081C129.02 181.292 129.398 181.481 129.787 181.648L130.63 182.034L130.795 182.131C131.044 182.272 131.309 182.383 131.583 182.463C131.779 182.508 131.977 182.541 132.177 182.559H132.55C134.066 182.85 135.489 183.504 136.695 184.466C137.359 184.95 137.884 185.309 138.436 185.641C139.051 185.985 139.638 186.378 140.191 186.815C140.675 187.227 141.136 187.666 141.573 188.128C142.092 188.702 142.666 189.225 143.286 189.689C143.545 189.867 143.818 190.024 144.101 190.159C144.391 190.311 144.682 190.477 144.958 190.656C145.468 190.996 145.932 191.4 146.34 191.858C146.479 192.011 146.609 192.172 146.726 192.342C146.906 192.63 147.141 192.879 147.417 193.074C147.597 193.154 147.788 193.206 147.984 193.226C148.34 193.274 148.686 193.382 149.006 193.544C149.165 193.641 149.317 193.747 149.462 193.862L149.67 194.014C149.881 194.15 150.103 194.27 150.333 194.373L150.512 194.456C150.926 194.672 151.315 194.931 151.673 195.23C151.894 195.396 152.115 195.561 152.336 195.699L152.765 195.948C153.225 196.184 153.649 196.487 154.022 196.846C154.209 197.053 154.384 197.27 154.547 197.496C154.729 197.764 154.943 198.01 155.182 198.228C155.459 198.449 155.763 198.629 156.053 198.822C156.386 199.005 156.705 199.213 157.006 199.444C157.591 199.907 158.115 200.44 158.568 201.033C159.032 201.66 159.435 202.331 159.77 203.036C160.018 203.552 160.299 204.05 160.613 204.529C160.751 204.722 160.889 204.929 161.041 205.123C161.193 205.316 161.566 205.869 161.801 206.256C162.152 206.868 162.457 207.505 162.713 208.162V208.328C163.037 209.064 163.309 209.821 163.528 210.594C163.691 211.131 163.918 211.646 164.205 212.128L164.44 212.57C164.78 213.249 165.013 213.976 165.131 214.726V215.043C165.131 215.264 165.214 215.485 165.269 215.693C165.31 215.854 165.365 216.011 165.435 216.163C165.504 216.342 165.573 216.522 165.628 216.715C165.757 217.281 165.799 217.864 165.753 218.442V218.871V219.603H165.062H164.316V218.484C164.364 217.959 164.317 217.43 164.177 216.922C163.976 216.292 163.81 215.651 163.68 215.002V214.781C163.55 214.129 163.311 213.503 162.975 212.929C162.583 212.285 162.285 211.587 162.091 210.857C161.908 210.229 161.682 209.615 161.414 209.019L161.317 208.798C161.053 208.099 160.72 207.428 160.322 206.795C160.143 206.532 159.963 206.27 159.77 206.021C159.576 205.772 159.328 205.413 159.134 205.095C158.9 204.719 158.692 204.326 158.512 203.921C158.402 203.7 158.305 203.478 158.181 203.271C157.565 202.066 156.646 201.042 155.514 200.301L155.238 200.135C154.695 199.833 154.197 199.456 153.759 199.016C153.58 198.828 153.418 198.625 153.276 198.408C153.085 198.125 152.852 197.873 152.585 197.661L151.922 197.261C151.563 197.061 151.217 196.839 150.885 196.598L150.581 196.349L150.125 196.003L149.642 195.769L149.214 195.561L148.633 195.188C148.407 194.998 148.143 194.857 147.859 194.774C147.263 194.726 146.695 194.499 146.229 194.124C145.949 193.858 145.695 193.567 145.469 193.254C145.331 193.074 145.193 192.895 145.041 192.729C144.682 192.342 144.268 192.011 143.811 191.748L143.383 191.513C142.922 191.275 142.483 190.997 142.07 190.684C141.52 190.258 140.998 189.797 140.509 189.302L140.163 188.957C139.847 188.601 139.505 188.268 139.141 187.962C138.699 187.626 138.238 187.317 137.759 187.036L137.386 186.815C136.93 186.539 136.488 186.235 136.004 185.917C135.282 185.382 134.509 184.92 133.697 184.535C133.076 184.294 132.425 184.136 131.763 184.066C131.124 183.948 130.508 183.729 129.939 183.416L129.082 183.015C128.612 182.794 128.156 182.573 127.7 182.311C127.245 182.048 126.457 181.606 125.807 181.288C124.572 180.627 123.464 179.752 122.533 178.705C122.397 178.568 122.268 178.425 122.146 178.276C121.846 177.931 121.513 177.616 121.151 177.337C120.669 177.012 120.137 176.769 119.576 176.618L119.203 176.494C118.761 176.342 118.305 176.204 117.821 176.024C117.492 175.886 117.177 175.714 116.882 175.513C116.775 175.442 116.673 175.364 116.578 175.278C116.456 175.157 116.31 175.062 116.149 175.002H115.942C115.833 174.989 115.726 174.961 115.624 174.919C115.298 174.808 114.994 174.639 114.726 174.421C114.371 174.184 113.996 173.976 113.607 173.799L112.971 173.482C112.323 173.117 111.654 172.789 110.968 172.501C110.76 172.428 110.548 172.368 110.332 172.321L109.959 172.224C109.586 172.114 109.199 171.962 108.743 171.782C108.025 171.492 107.362 171.188 106.63 170.856C106.16 170.635 105.643 170.53 105.123 170.552H104.93L104.212 170.442V169.06L104.971 168.991ZM104.681 163.312L104.985 163.451C105.317 163.572 105.625 163.75 105.897 163.976C106.353 164.329 106.861 164.608 107.403 164.805L108.136 165.081C108.302 165.132 108.473 165.164 108.647 165.178H109.006C109.384 165.251 109.737 165.423 110.028 165.675C110.128 165.764 110.239 165.839 110.36 165.896C110.465 165.921 110.573 165.921 110.678 165.896C110.823 165.906 110.966 165.929 111.106 165.965C111.409 166.033 111.695 166.16 111.949 166.338C112.368 166.593 112.802 166.824 113.248 167.029L113.607 167.195L115.583 168.204L116.965 168.936C118.001 169.461 119.023 169.889 120.115 170.318L120.433 170.456C120.847 170.622 121.241 170.836 121.607 171.091C122.016 171.432 122.354 171.85 122.602 172.321L122.685 172.473C122.767 172.643 122.882 172.795 123.025 172.918C123.168 173.042 123.334 173.135 123.514 173.192C123.783 173.247 124.055 173.289 124.329 173.316L125.034 173.413L125.434 173.482C125.835 173.551 126.222 173.62 126.623 173.717C127.252 173.902 127.856 174.167 128.419 174.504L129.151 174.905C130.118 175.43 131.127 175.983 132.094 176.618C132.688 177.005 133.2 177.378 133.656 177.737L133.96 178.014C134.194 178.221 134.512 178.511 134.706 178.511H134.844H135.521V179.147V179.81L134.885 179.92H134.623C134.201 179.898 133.797 179.749 133.462 179.492C133.213 179.312 132.965 179.105 132.73 178.912L132.177 178.456C131.184 177.714 130.13 177.058 129.027 176.494L128.184 176.038C127.441 175.587 126.635 175.247 125.794 175.029C125.255 174.919 124.702 174.808 124.163 174.753H123.984C123.511 174.728 123.045 174.63 122.602 174.463C122.087 174.23 121.66 173.838 121.386 173.343L121.234 173.081C121.049 172.714 120.785 172.393 120.46 172.141C120.099 171.934 119.719 171.758 119.327 171.616L119.161 171.547C118.554 171.312 117.959 171.05 117.365 170.774C116.495 170.359 115.624 169.917 114.768 169.475L113.8 168.977C113.234 168.701 112.681 168.411 112.115 168.148H111.949C111.753 168.065 111.564 167.968 111.382 167.858L111.12 167.692C110.976 167.58 110.812 167.496 110.636 167.444C110.549 167.436 110.461 167.436 110.374 167.444C110.108 167.436 109.846 167.38 109.6 167.278C109.391 167.176 109.199 167.041 109.034 166.877L108.826 166.725C108.692 166.663 108.545 166.635 108.398 166.642H108.025C107.715 166.581 107.414 166.484 107.127 166.352L106.712 166.2C106.184 166.015 105.678 165.77 105.206 165.468L104.847 165.178C104.752 165.076 104.639 164.992 104.515 164.929L103.949 164.666L103.59 164.404L103.438 162.773L104.681 163.312ZM164.233 170.912C164.026 170.627 163.841 170.327 163.68 170.014L163.542 169.779C163.376 169.489 163.196 169.198 163.003 168.922L162.851 168.701C162.33 167.95 161.933 167.119 161.677 166.242C161.566 165.868 161.469 165.495 161.373 165.122C161.108 163.867 160.642 162.663 159.991 161.558C159.635 161.076 159.217 160.644 158.747 160.273L158.181 159.775L157.794 159.402C157.269 158.919 156.758 158.435 156.205 158.02C155.652 157.606 154.823 156.998 154.202 156.501L153.967 156.335C153.523 155.99 153.103 155.617 152.709 155.216C152.53 155.036 152.35 154.856 152.157 154.69C151.814 154.389 151.433 154.133 151.024 153.931C150.672 153.742 150.331 153.534 150.001 153.309C149.486 152.897 148.993 152.459 148.523 151.996L147.887 151.388C147.182 150.766 146.505 150.117 145.815 149.454C145.706 149.349 145.63 149.214 145.598 149.067C145.566 148.919 145.579 148.765 145.635 148.625L145.884 148.141H146.353H146.685L146.892 148.348C147.583 149.039 148.274 149.73 149.034 150.366L149.656 150.946C150.073 151.402 150.536 151.814 151.037 152.176C151.258 152.328 151.493 152.452 151.714 152.576C152.251 152.851 152.752 153.19 153.207 153.585L153.649 154.013C154.077 154.459 154.539 154.87 155.031 155.243C155.749 155.768 156.412 156.293 157.158 156.86C157.904 157.426 158.195 157.772 158.692 158.241L159.203 158.725L159.701 159.153C160.209 159.564 160.672 160.027 161.082 160.535C161.474 161.109 161.79 161.731 162.022 162.387L162.16 162.732C162.438 163.431 162.655 164.152 162.81 164.887L162.92 165.33C163.116 166.163 163.453 166.957 163.915 167.679L164.164 168.038L164.633 168.742L164.91 169.254C165.02 169.447 165.117 169.641 165.241 169.82C165.705 170.432 166.271 170.96 166.913 171.382C167.398 171.758 167.859 172.164 168.295 172.597L168.861 173.109C169.138 173.357 169.428 173.578 169.718 173.813C170.136 174.123 170.533 174.46 170.906 174.822L171.639 175.54C171.998 175.927 172.371 176.3 172.772 176.66C173.172 177.019 173.338 177.198 173.628 177.489C173.938 177.819 174.266 178.133 174.609 178.428C175.202 178.955 175.71 179.57 176.115 180.252C176.309 180.542 176.516 180.819 176.723 181.095C177.069 181.578 177.428 182.062 177.732 182.587C177.912 182.877 178.077 183.181 178.243 183.485C178.499 183.996 178.795 184.486 179.127 184.95C179.321 185.226 179.542 185.503 179.763 185.765C180.109 186.17 180.432 186.594 180.73 187.036L181.241 187.851C181.573 188.376 181.891 188.902 182.25 189.399C182.609 189.896 182.72 190.007 182.969 190.297C183.309 190.685 183.623 191.096 183.908 191.527C184.102 191.817 184.281 192.135 184.461 192.439C184.724 192.919 185.019 193.38 185.345 193.82C185.841 194.405 186.366 194.963 186.92 195.492L187.031 195.589C187.611 196.169 188.15 196.777 188.661 197.358C189.248 198.061 189.876 198.73 190.54 199.361C190.913 199.693 191.314 200.01 191.715 200.328C192.645 200.993 193.469 201.794 194.16 202.705C194.413 203.065 194.685 203.41 194.976 203.741C195.252 204.059 195.514 204.377 195.763 204.708C196.227 205.394 196.629 206.12 196.965 206.877L197.048 207.071C197.32 207.535 197.564 208.015 197.78 208.508C197.919 208.909 198.057 209.309 198.236 209.71C198.44 210.127 198.68 210.524 198.955 210.898L199.508 211.755L199.618 211.962C200.039 212.634 200.391 213.347 200.668 214.09C200.907 214.957 200.992 215.86 200.917 216.757C200.839 217.506 200.938 218.263 201.207 218.967C201.351 219.256 201.518 219.533 201.705 219.796C201.842 220.025 201.958 220.265 202.05 220.515C202.05 220.653 202.174 220.805 202.243 220.929C202.534 221.393 202.862 221.832 203.224 222.242L203.832 222.988C204.399 223.748 204.979 224.494 205.504 225.268L205.753 225.613C206.154 226.131 206.489 226.697 206.748 227.299C206.95 227.741 207.211 228.155 207.521 228.529C207.745 228.812 207.952 229.107 208.143 229.413C208.511 230.07 208.977 230.666 209.525 231.182L209.898 231.582L209.732 232.024L209.483 232.522H208.696L208.502 232.356C207.871 231.757 207.331 231.068 206.9 230.311C206.731 230.038 206.547 229.775 206.347 229.524C206.053 229.146 205.785 228.749 205.546 228.335C205.456 228.156 205.377 227.972 205.311 227.783C205.264 227.646 205.208 227.512 205.145 227.382C205.01 227.166 204.862 226.958 204.703 226.76L204.399 226.359C203.888 225.627 203.363 224.895 202.824 224.19L202.174 223.389C201.801 222.919 201.414 222.463 201.083 222.007C200.938 221.776 200.818 221.531 200.723 221.275L200.585 220.943C200.494 220.776 200.392 220.614 200.281 220.46C200.157 220.28 200.046 220.1 199.936 219.907C199.479 218.914 199.293 217.817 199.397 216.729C199.433 216.166 199.405 215.6 199.314 215.043C199.141 214.368 198.861 213.724 198.485 213.137L198.292 212.777C198.112 212.473 197.919 212.169 197.711 211.879C197.431 211.487 197.177 211.076 196.951 210.649C196.737 210.2 196.548 209.738 196.385 209.268C196.264 208.862 196.116 208.465 195.943 208.08L195.818 207.831C195.513 207.138 195.158 206.468 194.755 205.827C194.525 205.504 194.276 205.194 194.008 204.902C193.718 204.57 193.442 204.238 193.193 203.893C192.763 203.274 192.241 202.724 191.646 202.263C190.205 201.161 188.889 199.906 187.722 198.518C187.205 197.887 186.646 197.292 186.05 196.736C185.412 196.134 184.808 195.497 184.24 194.829C183.876 194.335 183.544 193.818 183.245 193.282L182.872 192.646C182.584 192.213 182.271 191.797 181.932 191.402C181.697 191.14 181.476 190.864 181.269 190.587C180.855 190.034 180.495 189.44 180.136 188.86L179.708 188.183C179.386 187.702 179.035 187.24 178.658 186.801L178.16 186.166C177.759 185.605 177.394 185.019 177.069 184.411C176.944 184.176 176.82 183.941 176.682 183.706C176.336 183.126 175.949 182.587 175.549 182.021L175.176 181.496C175.051 181.33 174.941 181.15 174.83 180.971C174.72 180.791 174.595 180.597 174.457 180.418C174.245 180.148 173.999 179.907 173.725 179.699C173.346 179.38 172.986 179.039 172.647 178.677C172.399 178.414 172.15 178.166 171.887 177.931C171.625 177.696 171.1 177.157 170.713 176.756L169.884 175.941C169.568 175.651 169.236 175.379 168.889 175.126C168.585 174.877 168.281 174.642 167.991 174.38L167.521 173.965C166.989 173.475 166.431 173.014 165.849 172.584C165.223 172.118 164.677 171.553 164.233 170.912Z"
        fill="#EEDAAE"
      />
      <path
        d="M73.6896 176.895C73.7435 176.497 73.934 176.131 74.2285 175.858C74.947 175.319 75.7899 176.259 76.1353 176.798C76.7053 177.787 77.1684 178.834 77.517 179.92C77.7954 180.509 78.0398 181.114 78.2493 181.73C78.4266 182.399 78.5286 183.085 78.5533 183.775C78.5533 184.674 78.5533 185.585 78.5533 186.539C78.5533 187.022 78.5533 187.52 78.5533 188.003C78.5533 188.487 78.7466 188.998 78.8295 189.496C78.94 190.463 78.9677 191.439 78.9124 192.411C78.9124 192.853 78.9124 193.295 78.9124 193.793C78.9124 194.332 78.9124 194.857 78.9124 195.396C78.9132 195.421 78.9055 195.445 78.8904 195.465C78.8754 195.485 78.8539 195.5 78.8295 195.506V195.575H78.7329V195.492C78.7244 195.478 78.7199 195.461 78.7199 195.444C78.7199 195.427 78.7244 195.41 78.7329 195.396C78.5795 194.675 78.343 193.975 78.0282 193.309C77.9563 192.572 77.8222 191.841 77.6275 191.126C77.3373 190.421 76.7155 190.035 76.2458 189.44C76.0708 189.224 75.9521 188.968 75.9003 188.694C75.9093 188.323 75.8769 187.953 75.8036 187.589C75.6931 187.285 75.4859 187.009 75.3615 186.718C75.206 186.36 75.0766 185.99 74.9746 185.613C74.7535 184.853 74.6154 184.079 74.4496 183.306C73.906 181.819 73.5577 180.267 73.4133 178.691C73.4448 178.084 73.5374 177.482 73.6896 176.895Z"
        fill="white"
      />
      <path
        d="M89.3996 172.238C89.3506 171.886 89.3789 171.528 89.4825 171.188C89.745 170.483 90.201 169.806 90.4636 169.157C90.6495 168.371 90.7742 167.572 90.8366 166.767C91.0398 166.06 91.3323 165.382 91.707 164.749C92.0801 164.017 92.3703 163.202 92.6881 162.428C93.0059 161.654 92.9506 161.157 93.1716 160.535C93.4111 160.062 93.674 159.601 93.9592 159.153C94.2908 158.476 94.885 157.219 95.866 157.509C96.5845 157.716 96.8194 158.739 96.9437 159.361C97.1926 160.307 97.1926 161.302 96.9437 162.248C96.3621 163.523 95.5572 164.684 94.5672 165.675C94.0547 166.398 93.6541 167.195 93.3789 168.038C93.296 168.259 93.1993 168.466 93.1026 168.687C93.118 168.685 93.1339 168.687 93.1481 168.694C93.1624 168.7 93.1744 168.71 93.1831 168.723C93.1918 168.736 93.1966 168.751 93.197 168.767C93.1974 168.783 93.1934 168.798 93.1855 168.812C93.0296 169.202 92.7997 169.558 92.5084 169.862L92.3841 170.11C92.0801 170.635 91.7485 171.147 91.4031 171.658C91.2951 171.861 91.1703 172.055 91.03 172.238C90.9165 172.381 90.7917 172.515 90.6569 172.639C90.3893 172.959 90.1033 173.264 89.8003 173.551C89.4744 174.294 89.2379 175.073 89.0957 175.872C89.0818 175.901 89.0582 175.924 89.0291 175.938C88.9999 175.951 88.9669 175.954 88.9358 175.946C88.9047 175.938 88.8774 175.919 88.8587 175.893C88.84 175.867 88.8309 175.835 88.8332 175.803C89.0819 175.015 88.9575 174.173 89.1786 173.385C89.3105 173.016 89.385 172.629 89.3996 172.238Z"
        fill="white"
      />
      <path
        d="M61.959 194.511C62.0557 194.235 62.2906 194.207 62.5393 194.249C63.0116 194.322 63.4582 194.512 63.8381 194.801C64.2463 195.063 64.6385 195.349 65.0125 195.658C65.0125 195.658 65.0125 195.589 65.0954 195.589C65.5238 195.589 65.731 195.99 65.8968 196.335C66.013 196.544 66.1471 196.743 66.2976 196.929L66.5739 197.219C66.7803 197.426 67.0181 197.599 67.2786 197.731C67.7918 198.05 68.257 198.441 68.6603 198.891C69.1699 199.233 69.5724 199.712 69.8209 200.273C69.8209 200.37 69.738 200.453 69.669 200.397C69.4179 200.218 69.1547 200.057 68.8814 199.914C68.5221 199.734 68.0938 199.72 67.7207 199.568C67.1068 199.243 66.52 198.868 65.9659 198.449C65.6973 198.278 65.3963 198.166 65.0817 198.118C64.8978 198.085 64.7258 198.004 64.5842 197.883C64.0453 197.44 63.4927 197.026 63.0091 196.501C62.7027 196.189 62.4294 195.847 62.1939 195.478C62.0695 195.202 61.8485 194.815 61.959 194.511Z"
        fill="white"
      />
      <path
        d="M113.497 189.924C113.759 189.772 114.063 189.717 114.326 189.579C114.589 189.448 114.861 189.337 115.141 189.247C115.749 188.946 116.403 188.745 117.075 188.653C117.396 188.662 117.715 188.699 118.029 188.763C118.415 188.763 118.816 188.763 119.203 188.763C119.667 188.85 120.098 189.066 120.447 189.385C120.654 189.537 121.027 189.813 120.958 190.131C120.889 190.449 120.391 190.435 120.129 190.366C119.828 190.272 119.517 190.212 119.203 190.187C118.85 190.228 118.492 190.228 118.139 190.187C117.712 190.069 117.268 190.027 116.826 190.062C116.36 190.117 115.898 190.205 115.445 190.325C115.044 190.408 114.63 190.325 114.229 190.477C113.797 190.588 113.372 190.726 112.958 190.891C112.958 190.988 112.778 190.96 112.792 190.891C112.806 190.546 113.248 190.117 113.497 189.924Z"
        fill="white"
      />
      <path
        d="M80.1698 35.4219V35.3528C80.1698 35.3528 80.2527 35.3528 80.1698 35.4219Z"
        fill="#202147"
      />
      <path
        d="M75.4444 47.6914C75.4682 47.6143 75.5006 47.5401 75.5412 47.4703C75.6074 47.3675 75.6974 47.2822 75.8036 47.2216L76.1215 47.0696C76.3276 46.9851 76.5264 46.8834 76.7156 46.7656L76.8123 46.6689C76.8967 46.5902 77.0078 46.5465 77.1232 46.5465C77.2385 46.5465 77.3497 46.5902 77.4341 46.6689C77.5159 46.7517 77.5618 46.8634 77.5618 46.9798C77.5618 47.0962 77.5159 47.2079 77.4341 47.2907C77.1421 47.5597 76.7922 47.7583 76.4116 47.871H76.5221L76.2458 48.0092C76.1751 48.0558 76.1013 48.0974 76.0247 48.1335C75.9789 48.1274 75.9324 48.1274 75.8866 48.1335C75.8253 48.1505 75.7606 48.1509 75.6991 48.1347C75.6376 48.1185 75.5816 48.0863 75.5366 48.0414C75.4916 47.9964 75.4594 47.9403 75.4432 47.8788C75.427 47.8173 75.4274 47.7527 75.4444 47.6914Z"
        fill="white"
      />
      <path
        d="M58.2284 37.0384C58.2427 37.0025 58.2675 36.9718 58.2995 36.9501C58.3315 36.9284 58.3693 36.9168 58.408 36.9168C58.4466 36.9168 58.4844 36.9284 58.5164 36.9501C58.5484 36.9718 58.5733 37.0025 58.5876 37.0384V37.1075C58.6298 37.1736 58.6668 37.2429 58.6982 37.3148V37.3977L58.8086 37.5635L58.9469 37.7155L59.237 37.978C59.2667 38.0052 59.2905 38.0383 59.3067 38.0752C59.323 38.112 59.3314 38.1519 59.3314 38.1922C59.3314 38.2325 59.323 38.2723 59.3067 38.3092C59.2905 38.3461 59.2667 38.3791 59.237 38.4063C59.1807 38.4588 59.1067 38.4879 59.0298 38.4879C58.9528 38.4879 58.8787 38.4588 58.8225 38.4063C58.5848 38.2147 58.3796 37.9861 58.2145 37.7293C58.1318 37.5984 58.0624 37.4595 58.0073 37.3148C58.0651 37.211 58.1398 37.1176 58.2284 37.0384Z"
        fill="white"
      />
      <path
        d="M55.2853 29.9918C55.3905 30.0818 55.4793 30.1893 55.5478 30.3095L55.7551 30.6412C55.8263 30.766 55.8776 30.9012 55.9071 31.0418C55.948 31.1817 55.9757 31.3251 55.99 31.4702C55.9881 31.5324 55.9653 31.5923 55.9251 31.6399C55.885 31.6876 55.8299 31.7203 55.7689 31.7327C55.7056 31.7387 55.6423 31.7228 55.5895 31.6875C55.5366 31.6523 55.4975 31.5999 55.4788 31.5393C55.4546 31.4205 55.4175 31.3046 55.3682 31.1938C55.3682 31.0833 55.3682 31.1938 55.3682 31.1938V31.0557C55.3742 30.996 55.3742 30.9358 55.3682 30.876C55.3376 30.7635 55.3007 30.6528 55.2576 30.5444C55.2 30.4281 55.1671 30.3011 55.161 30.1714C55.1564 30.1314 55.1665 30.0912 55.1893 30.0582C55.2122 30.0252 55.2463 30.0015 55.2853 29.9918Z"
        fill="white"
      />
      <path
        d="M55.6169 19.325C55.6451 19.3048 55.679 19.2939 55.7137 19.2939C55.7484 19.2939 55.7822 19.3048 55.8104 19.325C55.8933 19.3941 55.99 19.4494 56.0591 19.5185L56.2664 19.7257L56.6809 20.1264C56.7046 20.1442 56.7243 20.1669 56.7385 20.193C56.7527 20.2191 56.7612 20.2479 56.7633 20.2775C56.7654 20.3071 56.7611 20.3369 56.7507 20.3647C56.7403 20.3925 56.7241 20.4178 56.7031 20.4388C56.6821 20.4598 56.6568 20.476 56.629 20.4864C56.6012 20.4968 56.5714 20.5011 56.5418 20.499C56.5122 20.4968 56.4834 20.4884 56.4573 20.4742C56.4312 20.46 56.4085 20.4403 56.3907 20.4166L55.99 20.0021L55.7966 19.7948C55.7201 19.7183 55.6508 19.6351 55.5894 19.5461C55.5657 19.5124 55.5553 19.4711 55.5604 19.4302C55.5655 19.3894 55.5857 19.3519 55.6169 19.325Z"
        fill="white"
      />
      <path
        d="M57.4408 28.8864C57.4788 28.8524 57.528 28.8336 57.579 28.8336C57.63 28.8336 57.6791 28.8524 57.7171 28.8864C57.8151 28.9524 57.9076 29.0263 57.9935 29.1075C58.0751 29.2047 58.1447 29.3114 58.2007 29.4253C58.3297 29.6426 58.3966 29.8911 58.3941 30.1437C58.396 30.1775 58.391 30.2114 58.3793 30.2432C58.3677 30.275 58.3496 30.304 58.3263 30.3286C58.3031 30.3532 58.2751 30.3727 58.244 30.3861C58.2128 30.3994 58.1793 30.4063 58.1455 30.4063C58.1105 30.4083 58.0754 30.4029 58.0427 30.3904C58.0099 30.3779 57.9802 30.3586 57.9554 30.3338C57.9306 30.309 57.9113 30.2793 57.8988 30.2465C57.8863 30.2138 57.8809 30.1787 57.8829 30.1437C57.8896 30.1026 57.8896 30.0606 57.8829 30.0194C57.8884 29.9735 57.8884 29.9271 57.8829 29.8812C57.8829 29.8812 57.8829 29.8812 57.8829 29.8121L57.7171 29.5496L57.6342 29.4391C57.5609 29.4647 57.4805 29.4602 57.4105 29.4265C57.3405 29.3928 57.2868 29.3327 57.2611 29.2595C57.2355 29.1862 57.24 29.1057 57.2737 29.0357C57.3074 28.9658 57.3675 28.912 57.4408 28.8864Z"
        fill="white"
      />
      <path
        d="M54.8847 28.1127H55.1886H56.0039C56.0588 28.1127 56.1116 28.1345 56.1504 28.1734C56.1893 28.2122 56.2111 28.265 56.2111 28.3199C56.2111 28.3749 56.1893 28.4276 56.1504 28.4665C56.1116 28.5053 56.0588 28.5272 56.0039 28.5272H55.1886H54.8847C54.8847 28.5272 54.7741 28.4443 54.7741 28.389C54.7534 28.366 54.7395 28.3376 54.7341 28.3071C54.7286 28.2766 54.7318 28.2452 54.7433 28.2164C54.7548 28.1876 54.7742 28.1627 54.7992 28.1443C54.8241 28.126 54.8538 28.115 54.8847 28.1127Z"
        fill="white"
      />
      <path
        d="M58.2283 26.4684C58.6152 26.5652 58.7119 27.0073 58.7534 27.3527C58.7534 27.4218 58.7534 27.4909 58.7534 27.5738C58.7467 27.6057 58.7467 27.6386 58.7534 27.6705C58.7534 27.6014 58.7534 27.6705 58.7534 27.6705C58.7455 27.7069 58.7455 27.7446 58.7534 27.7811C58.7494 27.8086 58.7494 27.8365 58.7534 27.864C58.7957 27.9251 58.8152 27.9993 58.8085 28.0734C58.8018 28.1475 58.7693 28.2169 58.7167 28.2695C58.6641 28.3221 58.5947 28.3546 58.5206 28.3613C58.4465 28.368 58.3724 28.3484 58.3112 28.3061C58.1877 28.1586 58.1023 27.9831 58.0625 27.7949C58.0414 27.6298 58.0414 27.4626 58.0625 27.2975C58.0694 27.2286 58.0694 27.1591 58.0625 27.0902V26.9382C58.0687 26.9016 58.0687 26.8643 58.0625 26.8277V26.7171C58.0565 26.6899 58.056 26.6617 58.0612 26.6343C58.0663 26.6068 58.077 26.5807 58.0925 26.5575C58.1079 26.5343 58.128 26.5144 58.1513 26.4991C58.1747 26.4838 58.2008 26.4734 58.2283 26.4684Z"
        fill="white"
      />
      <path
        d="M79.7829 16.8241C79.7773 16.7644 79.7773 16.7043 79.7829 16.6445C79.8105 16.5978 79.8519 16.5607 79.9014 16.5384C79.9509 16.5162 80.006 16.5098 80.0593 16.5202C80.1141 16.5351 80.1626 16.5674 80.1975 16.6123C80.2324 16.6571 80.2517 16.7121 80.2527 16.7689V16.8656C80.2594 16.9068 80.2594 16.9488 80.2527 16.9899C80.2463 17.0311 80.2463 17.0731 80.2527 17.1143V17.2248C80.2527 17.1281 80.2527 17.2248 80.2527 17.2248L80.3771 17.4874C80.4046 17.5632 80.4046 17.6463 80.3771 17.7222C80.3472 17.8006 80.2941 17.8681 80.2251 17.9157C80.1492 17.9431 80.0661 17.9431 79.9902 17.9157C79.9093 17.8905 79.8404 17.8364 79.7968 17.7637C79.7042 17.5668 79.6258 17.3637 79.5619 17.1557C79.5486 17.0456 79.5486 16.9343 79.5619 16.8241C79.6341 16.8034 79.7107 16.8034 79.7829 16.8241Z"
        fill="white"
      />
      <path
        d="M76.9919 18.0124L77.0886 17.8604V17.7637C77.1124 17.6953 77.1449 17.6303 77.1853 17.5703V17.4874C77.2826 17.205 77.438 16.9462 77.6413 16.7274C77.6853 16.6836 77.7449 16.6589 77.8071 16.6589C77.8692 16.6589 77.9288 16.6836 77.9729 16.7274C78.0176 16.7738 78.0426 16.8357 78.0426 16.9001C78.0426 16.9646 78.0176 17.0265 77.9729 17.0729C77.968 17.0956 77.968 17.1192 77.9729 17.1419C77.9281 17.1966 77.891 17.257 77.8624 17.3216C77.7933 17.4345 77.7377 17.555 77.6966 17.6808C77.646 17.8119 77.5812 17.937 77.5031 18.0539C77.4193 18.1635 77.3162 18.2571 77.1991 18.3302C77.157 18.3577 77.1057 18.3673 77.0564 18.3569C77.0072 18.3466 76.9641 18.3171 76.9366 18.275C76.9091 18.2328 76.8995 18.1815 76.9098 18.1322C76.9202 18.083 76.9498 18.0399 76.9919 18.0124Z"
        fill="white"
      />
      <path
        d="M78.9538 13.6877C78.9616 13.6788 78.9712 13.6718 78.9819 13.6669C78.9926 13.6621 79.0042 13.6596 79.016 13.6596C79.0277 13.6596 79.0394 13.6621 79.0501 13.6669C79.0609 13.6718 79.0704 13.6788 79.0782 13.6877C79.1725 13.7958 79.274 13.8974 79.3822 13.9916C79.3927 13.9977 79.4046 14.0009 79.4167 14.0009C79.4289 14.0009 79.4407 13.9977 79.4512 13.9916C79.5011 14.0039 79.5533 14.0039 79.6032 13.9916C79.6551 14.0075 79.6994 14.0419 79.7276 14.0884C79.7421 14.1156 79.7511 14.1454 79.7541 14.1761C79.7571 14.2068 79.754 14.2378 79.745 14.2673C79.7361 14.2968 79.7214 14.3242 79.7018 14.3481C79.6822 14.3719 79.6581 14.3916 79.6309 14.4062C79.6005 14.4199 79.5675 14.427 79.5341 14.427C79.5008 14.427 79.4678 14.4199 79.4374 14.4062C79.2992 14.3399 79.1838 14.2341 79.1058 14.1022C79.0367 13.9916 78.9953 13.8535 78.9262 13.7291C78.9321 13.7134 78.9416 13.6992 78.9538 13.6877Z"
        fill="white"
      />
      <path
        d="M76.6465 12.0296V11.8085C76.6397 11.7627 76.6397 11.7161 76.6465 11.6703C76.6573 11.6334 76.6788 11.6006 76.7083 11.576C76.7379 11.5514 76.7741 11.5361 76.8123 11.5322C76.8519 11.5316 76.8904 11.5453 76.9208 11.5706C76.9512 11.5959 76.9715 11.6313 76.9781 11.6703C76.9781 11.6703 76.9781 11.7671 76.9781 11.8085V12.0296V12.4856C77.0019 12.5431 77.0019 12.6077 76.9781 12.6652C76.9238 12.7122 76.8562 12.7412 76.7847 12.7481C76.718 12.7386 76.6555 12.7097 76.605 12.6652C76.5799 12.643 76.5604 12.6152 76.5484 12.5839C76.5363 12.5526 76.5321 12.5189 76.536 12.4856L76.6465 12.0296Z"
        fill="white"
      />
      <path
        d="M69.9728 14.42C70.0309 14.3729 70.0963 14.3356 70.1663 14.3095H70.2492C70.3555 14.2531 70.4571 14.1885 70.5531 14.116C70.7744 13.9405 71.0353 13.8219 71.313 13.7706C71.4197 13.729 71.5381 13.729 71.6447 13.7706C71.6947 13.7969 71.7381 13.8341 71.7716 13.8796C71.8052 13.9251 71.8278 13.9776 71.8381 14.0331C71.8618 14.0852 71.874 14.1417 71.874 14.1989C71.874 14.2561 71.8618 14.3127 71.8381 14.3647C71.7828 14.4585 71.6939 14.5276 71.5894 14.5582C71.3899 14.5965 71.1954 14.6568 71.0091 14.7378H71.1058C70.9463 14.8209 70.7799 14.8903 70.6084 14.9451H70.4012C70.3142 14.9588 70.2256 14.9588 70.1386 14.9451L69.9867 14.876C69.9513 14.8499 69.9224 14.8161 69.902 14.7772C69.8816 14.7383 69.8703 14.6952 69.869 14.6513C69.8677 14.6074 69.8763 14.5638 69.8943 14.5237C69.9123 14.4837 69.9391 14.4482 69.9728 14.42Z"
        fill="white"
      />
      <path
        d="M70.0419 19.2974C70.1503 19.1844 70.2657 19.0783 70.3873 18.9796C70.486 18.8993 70.5784 18.8115 70.6636 18.7171C70.7009 18.6649 70.7333 18.6094 70.7604 18.5513V18.4408C70.7682 18.3488 70.7682 18.2564 70.7604 18.1644C70.7699 18.1288 70.7865 18.0954 70.8091 18.0663C70.8318 18.0371 70.8601 18.0129 70.8923 17.9948C70.9245 17.9768 70.9599 17.9654 70.9966 17.9613C71.0333 17.9572 71.0704 17.9605 71.1058 17.971C71.1783 17.9905 71.2404 18.0374 71.2791 18.1019C71.3178 18.1663 71.3299 18.2432 71.313 18.3164C71.2466 18.6561 71.089 18.9714 70.8571 19.2283C70.6141 19.4271 70.35 19.5985 70.0695 19.7396C70.0109 19.7432 69.9532 19.7234 69.9091 19.6846C69.8651 19.6457 69.8383 19.5909 69.8346 19.5323C69.831 19.4737 69.8508 19.416 69.8896 19.3719C69.9285 19.3279 69.9832 19.3011 70.0419 19.2974Z"
        fill="white"
      />
      <path
        d="M69.9728 10.6617C69.9666 10.6312 69.9673 10.5998 69.9749 10.5696C69.9825 10.5395 69.9968 10.5114 70.0167 10.4875C70.0366 10.4637 70.0616 10.4446 70.0899 10.4316C70.1182 10.4187 70.149 10.4124 70.1801 10.413C70.2383 10.393 70.3015 10.393 70.3597 10.413L70.4702 10.5097C70.5267 10.5554 70.5737 10.6117 70.6084 10.6755C70.6515 10.739 70.6842 10.809 70.7052 10.8828C70.713 10.9609 70.713 11.0396 70.7052 11.1177C70.7116 11.1589 70.7116 11.2008 70.7052 11.242C70.7115 11.274 70.7115 11.3068 70.7052 11.3388C70.6462 11.3976 70.5673 11.4321 70.4841 11.4355C70.4423 11.4371 70.4007 11.4293 70.3624 11.4125C70.3242 11.3958 70.2902 11.3705 70.263 11.3388C70.2042 11.2798 70.1696 11.2009 70.1663 11.1177C70.1731 11.0719 70.1731 11.0253 70.1663 10.9795C70.1663 10.9795 70.1663 10.9795 70.1663 10.8966L70.0972 10.7861C70.0497 10.7469 70.0158 10.6937 70.0005 10.6341L69.9728 10.6617Z"
        fill="white"
      />
      <path
        d="M68.2595 16.6169L68.3838 16.5478L68.6187 16.3958C68.8087 16.2756 69.0295 16.2132 69.2542 16.2162C69.3004 16.2133 69.3467 16.221 69.3894 16.2386C69.4322 16.2563 69.4703 16.2835 69.5009 16.3181C69.5316 16.3528 69.554 16.394 69.5663 16.4386C69.5786 16.4831 69.5806 16.5299 69.5721 16.5754C69.5677 16.6216 69.5532 16.6662 69.5298 16.7062C69.5063 16.7462 69.4743 16.7806 69.4362 16.807C69.398 16.8333 69.3545 16.851 69.3087 16.8587C69.263 16.8664 69.2161 16.8641 69.1713 16.8517H69.047H68.9227H68.7016C68.5421 16.9104 68.374 16.943 68.2041 16.9485C68.1602 16.9411 68.1209 16.9167 68.095 16.8804C68.0691 16.8441 68.0587 16.799 68.066 16.755C68.0733 16.7111 68.0979 16.6718 68.1341 16.6459C68.1704 16.62 68.2155 16.6095 68.2595 16.6169Z"
        fill="white"
      />
      <path
        d="M67.2371 12.831L68.3009 12.7343C68.3384 12.7342 68.3755 12.7418 68.41 12.7565C68.4444 12.7713 68.4755 12.7929 68.5014 12.82C68.5272 12.8472 68.5473 12.8793 68.5603 12.9144C68.5734 12.9495 68.5792 12.987 68.5773 13.0244C68.5773 13.0977 68.5482 13.168 68.4963 13.2198C68.4445 13.2716 68.3742 13.3008 68.3009 13.3008L67.2371 13.2179C67.1265 13.2179 67.0298 13.135 67.0436 13.0244C67.0415 12.9985 67.0451 12.9724 67.0541 12.948C67.0631 12.9236 67.0773 12.9014 67.0957 12.883C67.1141 12.8646 67.1362 12.8504 67.1606 12.8414C67.185 12.8325 67.2111 12.8289 67.2371 12.831Z"
        fill="white"
      />
      <path
        d="M90.0075 23.4701C90.0623 23.4894 90.1136 23.5174 90.1595 23.553L90.2839 23.6497L90.5049 23.8432L90.6431 23.9399V24.009L90.7399 24.0919L90.878 24.1609H90.9609C91.0587 24.1644 91.1517 24.2048 91.2209 24.274C91.2901 24.3432 91.3305 24.4362 91.334 24.534C91.3304 24.6305 91.2895 24.7219 91.2199 24.7889C91.1503 24.8559 91.0575 24.8933 90.9609 24.8932C90.7994 24.8896 90.6404 24.8535 90.4932 24.787C90.346 24.7205 90.2137 24.6251 90.1042 24.5064C89.993 24.4027 89.8996 24.2813 89.8279 24.1471L89.7312 23.9952C89.7181 23.9313 89.7181 23.8655 89.7312 23.8017C89.7159 23.7607 89.7117 23.7163 89.7191 23.6731C89.7265 23.6299 89.7452 23.5895 89.7732 23.5558C89.8013 23.5221 89.8377 23.4965 89.8788 23.4814C89.92 23.4664 89.9644 23.4625 90.0075 23.4701Z"
        fill="white"
      />
      <path
        d="M84.4116 22.6964C84.6208 22.7741 84.8131 22.8914 84.978 23.0418L85.213 23.1938L85.3788 23.3458L85.5998 23.4978H85.738H85.8762H85.9729C86.1061 23.5115 86.2404 23.5115 86.3736 23.4978C86.4738 23.4977 86.5702 23.5365 86.6423 23.6061C86.7145 23.6757 86.7569 23.7706 86.7605 23.8708C86.7571 23.9723 86.7152 24.0687 86.6434 24.1406C86.5715 24.2124 86.4751 24.2542 86.3736 24.2577C85.8898 24.3212 85.3993 24.2084 84.9919 23.9399C84.8082 23.8137 84.6451 23.6599 84.5083 23.4839L84.301 23.2352C84.2079 23.1411 84.1288 23.0341 84.0662 22.9174C84.0637 22.8757 84.0723 22.8341 84.0913 22.7969C84.1102 22.7596 84.1388 22.7281 84.174 22.7056C84.2092 22.683 84.2497 22.6703 84.2915 22.6687C84.3333 22.6671 84.3747 22.6766 84.4116 22.6964Z"
        fill="white"
      />
      <path
        d="M37.793 39.3321H37.8759C38.0599 39.3965 38.2325 39.4897 38.3871 39.6084C38.684 39.8684 38.9611 40.1501 39.2161 40.4512C39.2627 40.5022 39.2886 40.5687 39.2886 40.6378C39.2886 40.7068 39.2627 40.7734 39.2161 40.8243C39.1639 40.8682 39.0978 40.8922 39.0296 40.8922C38.9614 40.8922 38.8953 40.8682 38.843 40.8243L38.4286 40.3822L38.2075 40.1749C38.1788 40.1393 38.1464 40.1068 38.1108 40.0782H38.0002L37.793 39.9953C37.6893 39.9621 37.5947 39.9053 37.5167 39.8295C37.4445 39.7404 37.3926 39.6367 37.3647 39.5255C37.339 39.4687 37.3369 39.404 37.359 39.3457C37.381 39.2874 37.4253 39.2403 37.4821 39.2146C37.5389 39.189 37.6036 39.1869 37.6619 39.2089C37.7202 39.231 37.7674 39.2753 37.793 39.3321Z"
        fill="white"
      />
      <path
        d="M31.976 27.408C32.1623 27.3333 32.3387 27.2359 32.5011 27.1178C32.6758 26.9922 32.8662 26.89 33.0675 26.8139C33.5157 26.657 33.9787 26.5459 34.4492 26.4823C34.4783 26.474 34.5088 26.4718 34.5387 26.4758C34.5686 26.4798 34.5974 26.4898 34.6233 26.5054C34.6492 26.5209 34.6717 26.5416 34.6892 26.5661C34.7068 26.5907 34.7192 26.6186 34.7256 26.6481C34.7362 26.6761 34.7406 26.7061 34.7385 26.736C34.7364 26.7659 34.7278 26.795 34.7134 26.8213C34.6989 26.8476 34.679 26.8704 34.6548 26.8882C34.6307 26.906 34.603 26.9184 34.5736 26.9244C34.1035 26.976 33.6403 27.0779 33.1919 27.2284C33.0123 27.2284 32.8465 27.408 32.6669 27.4909C32.4768 27.5938 32.2601 27.6371 32.0451 27.6153C31.976 27.6014 31.976 27.5047 31.976 27.408Z"
        fill="white"
      />
      <path
        d="M31.7687 21.9779C31.812 21.938 31.8688 21.916 31.9277 21.916C31.9865 21.916 32.0432 21.938 32.0866 21.9779L32.3767 22.2127C32.4752 22.2932 32.5676 22.381 32.653 22.4753L33.2057 23.0141C33.2564 23.0658 33.2847 23.1352 33.2847 23.2076C33.2847 23.2799 33.2564 23.3494 33.2057 23.401C33.1799 23.4282 33.1488 23.4498 33.1144 23.4646C33.08 23.4794 33.0428 23.487 33.0054 23.487C32.9679 23.487 32.9308 23.4794 32.8963 23.4646C32.8619 23.4498 32.8308 23.4282 32.805 23.401L32.2799 22.8621C32.1824 22.7853 32.0943 22.6972 32.0175 22.5996L31.7687 22.2956C31.7289 22.2523 31.7068 22.1956 31.7068 22.1368C31.7068 22.0779 31.7289 22.0212 31.7687 21.9779Z"
        fill="white"
      />
      <path
        d="M43.6099 21.1489C43.6201 21.0879 43.6526 21.0329 43.7012 20.9945C43.7497 20.9562 43.8108 20.9374 43.8725 20.9416C43.9352 20.9397 43.9968 20.9591 44.047 20.9968C44.0972 21.0344 44.1331 21.0881 44.1488 21.1489C44.1566 21.2085 44.1566 21.2689 44.1488 21.3285V21.2456C44.1442 21.2869 44.1442 21.3286 44.1488 21.37L44.3146 21.5219C44.5259 21.667 44.7475 21.7964 44.9778 21.9088C45.0492 21.9544 45.1005 22.0257 45.1211 22.1079C45.1416 22.1901 45.1299 22.2771 45.0884 22.351C45.045 22.4248 44.9747 22.4789 44.8923 22.5021C44.8099 22.5253 44.7217 22.5157 44.6462 22.4753C44.4528 22.3786 44.2594 22.2819 44.0797 22.1714C43.8462 22.0393 43.6509 21.8489 43.5132 21.6187C43.4663 21.5187 43.4382 21.411 43.4303 21.3009C43.4822 21.2415 43.5428 21.1903 43.6099 21.1489Z"
        fill="white"
      />
      <path
        d="M59.2922 15.8017L59.9416 15.6912C60.1849 15.6637 60.4306 15.6637 60.6739 15.6912C60.7692 15.6912 60.8606 15.729 60.928 15.7964C60.9953 15.8638 61.0332 15.9551 61.0332 16.0504C61.0332 16.1457 60.9953 16.237 60.928 16.3044C60.8606 16.3718 60.7692 16.4096 60.6739 16.4096C60.43 16.4234 60.1855 16.4234 59.9416 16.4096L59.2922 16.2853C59.2281 16.2853 59.1666 16.2598 59.1212 16.2145C59.0759 16.1691 59.0504 16.1076 59.0504 16.0435C59.0504 15.9794 59.0759 15.9179 59.1212 15.8725C59.1666 15.8272 59.2281 15.8017 59.2922 15.8017Z"
        fill="white"
      />
      <path
        d="M103.645 18.6342C103.644 18.5951 103.655 18.5565 103.674 18.5225C103.693 18.4886 103.722 18.4603 103.755 18.4408C103.817 18.3985 103.888 18.3704 103.962 18.3585C104.036 18.3466 104.112 18.3511 104.184 18.3717C104.29 18.4061 104.392 18.4525 104.488 18.5098C104.672 18.646 104.835 18.809 104.971 18.9934C104.992 19.0341 105.003 19.0791 105.003 19.1247C105.003 19.1703 104.992 19.2153 104.971 19.256C104.961 19.2989 104.942 19.3393 104.916 19.3749C104.89 19.4105 104.857 19.4405 104.819 19.4632C104.735 19.4963 104.641 19.4963 104.557 19.4632C104.469 19.4364 104.395 19.3771 104.35 19.2974C104.287 19.2137 104.212 19.1393 104.128 19.0763L103.963 18.9658L103.88 18.8967C103.846 18.8995 103.812 18.8943 103.78 18.8817C103.748 18.869 103.72 18.8492 103.697 18.8238C103.674 18.7983 103.658 18.768 103.649 18.7351C103.64 18.7022 103.638 18.6677 103.645 18.6342Z"
        fill="white"
      />
      <path
        d="M101.807 12.1678C101.825 12.1362 101.852 12.11 101.883 12.0917C101.915 12.0735 101.95 12.0639 101.987 12.0639C102.023 12.0639 102.059 12.0735 102.091 12.0917C102.122 12.11 102.148 12.1362 102.167 12.1678C102.17 12.1953 102.17 12.2232 102.167 12.2507C102.341 12.3104 102.505 12.3991 102.65 12.5132C102.972 12.7605 103.256 13.0538 103.493 13.3837C103.515 13.4217 103.529 13.4637 103.535 13.5073C103.541 13.5509 103.538 13.5953 103.526 13.6377C103.515 13.6801 103.495 13.7198 103.468 13.7545C103.441 13.7892 103.407 13.8181 103.369 13.8396C103.292 13.8767 103.205 13.8845 103.124 13.8616C103.042 13.8387 102.972 13.7866 102.926 13.7153L102.83 13.5909L102.636 13.3837C102.492 13.2666 102.353 13.1421 102.222 13.0106C102.189 12.9704 102.152 12.9333 102.111 12.9001L101.987 12.8172C101.914 12.7666 101.852 12.7006 101.807 12.6237C101.799 12.578 101.799 12.5313 101.807 12.4856C101.774 12.3822 101.774 12.2711 101.807 12.1678Z"
        fill="white"
      />
      <path
        d="M94.7191 16.8379L94.9126 16.755H94.9955C95.1337 16.6445 95.2581 16.5201 95.3962 16.4234C95.5344 16.3267 96.1147 16.0504 96.4463 15.8293C96.5074 15.7978 96.5782 15.7903 96.6446 15.8081C96.7111 15.826 96.7684 15.8681 96.8055 15.926C96.837 15.9872 96.8446 16.0579 96.8267 16.1244C96.8088 16.1908 96.7667 16.2482 96.7088 16.2853C96.3495 16.5063 95.9489 16.6307 95.6173 16.8656L95.4515 17.0037L95.2304 17.1695C95.0775 17.2793 94.8936 17.3374 94.7054 17.3353C94.5534 17.2248 94.4842 16.8932 94.7191 16.8379Z"
        fill="white"
      />
      <path
        d="M92.3702 40.1334C92.4978 40.1263 92.6253 40.1489 92.7427 40.1992C92.8602 40.2495 92.9644 40.3263 93.0473 40.4236C93.0596 40.4688 93.0596 40.5165 93.0473 40.5618C93.0454 40.5936 93.0371 40.6247 93.0228 40.6532C93.0086 40.6817 92.9887 40.707 92.9644 40.7276C92.9233 40.7664 92.8689 40.7881 92.8124 40.7881C92.7559 40.7881 92.7014 40.7664 92.6603 40.7276L92.5636 40.6308H92.467H92.3426C92.3061 40.6383 92.2685 40.6383 92.232 40.6308C92.2194 40.5951 92.2194 40.5561 92.232 40.5203C92.1807 40.502 92.1388 40.464 92.1155 40.4148C92.0922 40.3656 92.0894 40.3091 92.1077 40.2578C92.126 40.2065 92.164 40.1646 92.2132 40.1412C92.2624 40.1179 92.3189 40.1151 92.3702 40.1334Z"
        fill="white"
      />
      <path
        d="M82.4772 31.5669H82.6983H82.8088L82.9055 31.4979H82.9746L83.2095 31.3459C83.3641 31.2457 83.5314 31.1667 83.7069 31.111C83.9198 31.0554 84.1434 31.0554 84.3563 31.111C84.4299 31.1335 84.4923 31.1831 84.5308 31.2498C84.5692 31.3164 84.5809 31.3952 84.5636 31.4702C84.5411 31.5438 84.4914 31.6062 84.4248 31.6446C84.3581 31.6831 84.2793 31.6948 84.2043 31.6775H84.0109H83.7898H83.6931L83.4721 31.8156C83.322 31.9175 83.1508 31.9841 82.9713 32.0104C82.7918 32.0367 82.6088 32.0221 82.4358 31.9676C82.3971 31.9529 82.3641 31.9262 82.3417 31.8914C82.3194 31.8566 82.3087 31.8155 82.3114 31.7742C82.3049 31.7492 82.3044 31.7232 82.3098 31.698C82.3152 31.6728 82.3263 31.6492 82.3424 31.6291C82.3585 31.609 82.3791 31.5929 82.4025 31.5821C82.4259 31.5713 82.4514 31.5661 82.4772 31.5669Z"
        fill="white"
      />
      <path
        d="M76.4529 28.0712C76.5129 28.009 76.5897 27.9658 76.674 27.9468H76.826C76.9315 27.9331 77.0383 27.9331 77.1438 27.9468C77.2815 27.9736 77.4158 28.0153 77.5445 28.0712L77.7379 28.1541H77.8347C77.9561 28.2157 78.0806 28.2711 78.2077 28.3199C78.2436 28.3342 78.2744 28.359 78.2961 28.391C78.3178 28.4231 78.3293 28.4608 78.3293 28.4995C78.3293 28.5382 78.3178 28.576 78.2961 28.608C78.2744 28.64 78.2436 28.6648 78.2077 28.6791L77.8347 28.762C77.6926 28.7823 77.5484 28.7823 77.4063 28.762H77.0471H76.8813H76.7984H76.7016H76.5773C76.5344 28.7518 76.4939 28.733 76.4583 28.7069C76.4228 28.6808 76.3927 28.6479 76.37 28.61C76.2986 28.5991 76.2344 28.5601 76.1917 28.5018C76.1489 28.4435 76.1311 28.3706 76.1421 28.2992C76.1531 28.2277 76.192 28.1635 76.2503 28.1208C76.3086 28.078 76.3815 28.0602 76.4529 28.0712Z"
        fill="white"
      />
      <path
        d="M72.9435 25.4874C72.9523 25.4632 72.967 25.4417 72.9863 25.4248C73.0056 25.4079 73.0289 25.3961 73.054 25.3907H73.5791C73.6134 25.3896 73.6475 25.3965 73.6787 25.4109C73.7098 25.4253 73.7372 25.4468 73.7587 25.4736C73.8016 25.5183 73.8262 25.5774 73.8278 25.6394C73.8283 25.7058 73.8036 25.77 73.7587 25.819C73.7003 25.838 73.6374 25.838 73.5791 25.819H73.1784H73.054C73.0157 25.7993 72.9826 25.7709 72.9573 25.7361C72.9464 25.7172 72.9407 25.6958 72.9407 25.6739C72.9407 25.6521 72.9464 25.6307 72.9573 25.6118C72.9453 25.5936 72.9379 25.5728 72.9355 25.5512C72.9331 25.5296 72.9359 25.5077 72.9435 25.4874Z"
        fill="white"
      />
      <path
        d="M69.5998 32.4512C69.6377 32.3425 69.699 32.2435 69.7794 32.1611L70.0005 31.9953C70.1135 31.903 70.2336 31.8198 70.3598 31.7466L70.7189 31.5116L70.8018 31.4426L70.9815 31.2906C71.0397 31.2415 71.1142 31.2161 71.1903 31.2193C71.2663 31.2226 71.3385 31.2542 71.3923 31.3081C71.4462 31.3619 71.4778 31.434 71.481 31.5101C71.4843 31.5862 71.4589 31.6607 71.4098 31.7189C71.2151 31.9346 71.0025 32.1333 70.7743 32.313L70.3735 32.617H70.2906C70.2906 32.617 70.1663 32.7414 70.0834 32.7552H69.9728C69.9203 32.7683 69.8654 32.7689 69.8126 32.7569C69.7598 32.7449 69.7106 32.7206 69.6689 32.6861C69.6168 32.6195 69.592 32.5355 69.5998 32.4512Z"
        fill="white"
      />
      <path
        d="M68.7569 29.2319C68.7797 29.2115 68.8092 29.2002 68.8398 29.2002C68.8704 29.2002 68.8999 29.2115 68.9227 29.2319H69.0056H69.0885H69.282H69.3787H69.6274C69.675 29.2187 69.7259 29.2242 69.7696 29.2473C69.8133 29.2704 69.8464 29.3094 69.8623 29.3562C69.8684 29.3798 69.8697 29.4044 69.866 29.4285C69.8623 29.4527 69.8537 29.4758 69.8408 29.4965C69.8278 29.5171 69.8108 29.535 69.7907 29.5489C69.7707 29.5628 69.748 29.5724 69.7241 29.5773C69.5477 29.6255 69.3616 29.6255 69.1852 29.5773L68.9642 29.4667L68.8398 29.3562C68.8353 29.3149 68.8353 29.2732 68.8398 29.2319C68.8132 29.2426 68.7835 29.2426 68.7569 29.2319Z"
        fill="white"
      />
      <path
        d="M66.9192 26.7586H67.0298L67.1542 26.6342C67.32 26.4684 67.4443 26.2888 67.6101 26.123C67.6308 26.0995 67.6564 26.0806 67.685 26.0677C67.7136 26.0548 67.7445 26.0482 67.7759 26.0482C67.8073 26.0482 67.8383 26.0548 67.8669 26.0677C67.8955 26.0806 67.921 26.0995 67.9418 26.123C67.9857 26.167 68.0103 26.2266 68.0103 26.2888C68.0103 26.351 67.9857 26.4106 67.9418 26.4546C67.7622 26.6204 67.6239 26.8138 67.4305 26.9797C67.3362 27.0688 67.2291 27.1433 67.1127 27.2007L66.9055 27.2698C66.851 27.2833 66.7941 27.2833 66.7396 27.2698H66.6567C66.5889 27.235 66.5378 27.1747 66.5144 27.1021C66.4911 27.0296 66.4976 26.9507 66.5324 26.8829C66.5672 26.8151 66.6275 26.764 66.7001 26.7406C66.7726 26.7173 66.8515 26.7238 66.9192 26.7586Z"
        fill="white"
      />
      <path
        d="M63.6446 39.3044H63.7552C63.8048 39.2902 63.8575 39.2902 63.9071 39.3044H65.2889C65.3511 39.3044 65.4109 39.3292 65.455 39.3732C65.499 39.4173 65.5238 39.477 65.5238 39.5393C65.5205 39.6005 65.4946 39.6584 65.4513 39.7017C65.4079 39.7451 65.3501 39.7709 65.2889 39.7742H63.7552L63.617 39.7051C63.58 39.6848 63.5494 39.6544 63.5291 39.6173C63.5088 39.5802 63.4996 39.5381 63.5025 39.4959C63.5054 39.4537 63.5203 39.4133 63.5455 39.3794C63.5707 39.3454 63.6051 39.3194 63.6446 39.3044Z"
        fill="white"
      />
      <path
        d="M61.7517 35.3528H61.9866C62.18 35.3528 62.3597 35.3528 62.5531 35.3528C62.6154 35.3528 62.6751 35.3775 62.7191 35.4216C62.7632 35.4656 62.788 35.5254 62.788 35.5877C62.7846 35.6489 62.7589 35.7067 62.7155 35.7501C62.6722 35.7934 62.6143 35.8193 62.5531 35.8226C62.3325 35.8433 62.1105 35.8433 61.8899 35.8226C61.7724 35.805 61.6604 35.7611 61.5623 35.6941C61.4642 35.6271 61.3825 35.5387 61.3234 35.4357C61.351 35.4081 61.5997 35.2008 61.7517 35.3528Z"
        fill="white"
      />
      <path
        d="M58.8363 39.6637L59.2647 39.2492C59.3554 39.1679 59.4524 39.094 59.5549 39.0281L59.845 38.8761C60.2261 38.6714 60.6441 38.5446 61.0747 38.5031C61.2819 38.5031 61.3372 38.8347 61.0747 38.8623C60.6959 38.943 60.3352 39.0929 60.0108 39.3044L59.7482 39.484L59.472 39.6084C59.2923 39.6913 59.1265 39.788 58.9607 39.8848C58.9339 39.8876 58.9068 39.8824 58.8829 39.8701C58.8589 39.8577 58.8391 39.8386 58.8259 39.8151C58.8127 39.7916 58.8066 39.7647 58.8084 39.7378C58.8103 39.7109 58.82 39.6851 58.8363 39.6637Z"
        fill="white"
      />
      <path
        d="M78.0834 7.74637H78.1939C78.2483 7.73233 78.3053 7.73233 78.3597 7.74637H78.6499C78.8344 7.80374 78.9977 7.91428 79.1196 8.06416C79.145 8.08683 79.1654 8.11449 79.1797 8.14539C79.1939 8.17628 79.2017 8.20977 79.2025 8.24378C79.2036 8.27811 79.1967 8.3122 79.1823 8.34338C79.1679 8.37456 79.1464 8.40197 79.1196 8.42341C79.0976 8.44958 79.0701 8.47061 79.0391 8.48504C79.0081 8.49947 78.9742 8.50694 78.94 8.50694C78.9058 8.50694 78.872 8.49947 78.841 8.48504C78.81 8.47061 78.7824 8.44958 78.7604 8.42341L78.6499 8.32668L78.5532 8.25761H78.4149H78.2906C78.2222 8.27103 78.1518 8.27103 78.0834 8.25761C78.0517 8.26646 78.0183 8.26646 77.9866 8.25761C77.9761 8.21683 77.9761 8.17403 77.9866 8.13325C77.9545 8.10665 77.9306 8.07152 77.9176 8.0319C77.9046 7.99228 77.9031 7.94979 77.9132 7.90934C77.9233 7.86889 77.9446 7.83213 77.9747 7.80329C78.0048 7.77446 78.0425 7.75472 78.0834 7.74637Z"
        fill="white"
      />
      <path
        d="M84.6188 2.95182C84.7708 2.95182 84.9367 2.95182 85.1025 2.95182H85.5446C85.8261 2.9122 86.1004 2.83313 86.3598 2.71694C86.3905 2.70016 86.4244 2.68971 86.4592 2.6862C86.4941 2.68269 86.5292 2.68619 86.5627 2.69649C86.5962 2.70679 86.6273 2.72368 86.6541 2.74618C86.681 2.76867 86.7031 2.79632 86.7191 2.82748C86.7319 2.86001 86.7378 2.8949 86.7363 2.92986C86.7348 2.96482 86.7259 2.99906 86.7103 3.03036C86.6946 3.06166 86.6726 3.0893 86.6455 3.11149C86.6185 3.13367 86.587 3.14989 86.5533 3.15909C86.2462 3.29073 85.9193 3.37011 85.586 3.39398C85.2642 3.42176 84.9406 3.42176 84.6188 3.39398C84.5602 3.39398 84.504 3.37069 84.4626 3.32923C84.4211 3.28777 84.3978 3.23153 84.3978 3.1729C84.3978 3.11427 84.4211 3.05803 84.4626 3.01657C84.504 2.97511 84.5602 2.95182 84.6188 2.95182Z"
        fill="white"
      />
      <path
        d="M83.099 0.285154L83.1958 0.216065C83.2587 0.195964 83.3263 0.195964 83.3892 0.216065C83.4497 0.270391 83.52 0.3126 83.5964 0.340413H83.707H83.8728H84.1215C84.1578 0.33925 84.194 0.346076 84.2274 0.3604C84.2608 0.374723 84.2907 0.396193 84.315 0.423312C84.3448 0.445216 84.3682 0.474724 84.3828 0.50874C84.3973 0.542757 84.4026 0.580041 84.3979 0.616749C84.3992 0.655161 84.3926 0.693435 84.3783 0.729122C84.364 0.764809 84.3424 0.797136 84.315 0.824017C84.2699 0.83787 84.2218 0.83787 84.1768 0.824017C84.0034 0.857576 83.8252 0.857576 83.6518 0.824017L83.4997 0.754928C83.4458 0.735721 83.3981 0.702316 83.3616 0.65822C83.2902 0.59595 83.2253 0.526487 83.1681 0.450952C83.1552 0.401106 83.1552 0.348808 83.1681 0.298963C83.1445 0.29808 83.1212 0.293423 83.099 0.285154Z"
        fill="white"
      />
      <path
        d="M67.1817 3.17291H67.2923H67.4581C67.571 3.16357 67.6824 3.14037 67.7897 3.10383C67.9968 3.02697 68.1958 2.92979 68.3838 2.81368C68.7521 2.5627 69.0947 2.27572 69.4063 1.95701C69.4558 1.90754 69.5228 1.87976 69.5928 1.87976C69.6627 1.87976 69.7298 1.90754 69.7793 1.95701C69.8288 2.00648 69.8566 2.07359 69.8566 2.14355C69.8566 2.21352 69.8288 2.2806 69.7793 2.33008C69.4306 2.70259 69.0466 3.04038 68.6326 3.33871C68.4108 3.49104 68.169 3.61195 67.9141 3.69797C67.6544 3.78745 67.3723 3.78745 67.1126 3.69797C67.043 3.68881 66.9799 3.65235 66.9371 3.59664C66.8944 3.54093 66.8755 3.47051 66.8847 3.40089C66.8939 3.33126 66.9303 3.26815 66.986 3.22539C67.0417 3.18264 67.1121 3.16375 67.1817 3.17291Z"
        fill="white"
      />
      <path
        d="M113.303 24.1333C113.324 24.1048 113.351 24.0816 113.382 24.0655C113.413 24.0495 113.448 24.0411 113.483 24.0411C113.518 24.0411 113.552 24.0495 113.584 24.0655C113.615 24.0816 113.642 24.1048 113.662 24.1333L113.787 24.313L113.897 24.4926C113.949 24.5766 114.009 24.6553 114.077 24.7275L114.16 24.8656L114.326 25.1005L114.408 25.2249L114.561 25.3907V25.4598C114.628 25.5051 114.677 25.5738 114.698 25.6528C114.718 25.7318 114.708 25.8156 114.671 25.8881C114.628 25.9586 114.559 26.0095 114.479 26.0301C114.399 26.0508 114.314 26.0395 114.243 25.9986C114.015 25.8262 113.819 25.6159 113.662 25.3769C113.566 25.2387 113.469 25.1143 113.386 24.9762C113.296 24.828 113.221 24.6705 113.165 24.5064V24.313C113.196 24.2427 113.243 24.181 113.303 24.1333Z"
        fill="white"
      />
      <path
        d="M114.781 25.9572H114.92H115.03C115.03 25.9572 114.961 25.9572 115.03 25.9572L115.127 25.8604C115.132 25.8145 115.132 25.7682 115.127 25.7223C115.127 25.7223 115.127 25.7223 115.127 25.6532C115.127 25.6056 115.146 25.5599 115.18 25.5262C115.213 25.4925 115.259 25.4736 115.307 25.4736C115.354 25.4736 115.4 25.4925 115.434 25.5262C115.467 25.5599 115.486 25.6056 115.486 25.6532C115.492 25.6805 115.492 25.7088 115.486 25.7361C115.5 25.7952 115.5 25.8566 115.486 25.9157C115.471 25.9891 115.443 26.0592 115.403 26.123C115.352 26.2354 115.282 26.3383 115.196 26.427C115.099 26.5086 114.992 26.5782 114.878 26.6342H114.712H114.629C114.561 26.648 114.491 26.648 114.422 26.6342C114.389 26.6206 114.362 26.5975 114.342 26.568C114.322 26.5385 114.312 26.5039 114.312 26.4684C114.312 26.4329 114.322 26.3983 114.342 26.3688C114.362 26.3393 114.389 26.3162 114.422 26.3026L114.781 25.9572Z"
        fill="white"
      />
      <path
        d="M96.6535 23.0418C96.7946 23.0532 96.9293 23.1061 97.0404 23.1938C97.1821 23.2839 97.3161 23.3856 97.4411 23.4978C97.676 23.6912 97.8971 23.9123 98.132 24.0919C98.1533 24.1125 98.1702 24.1372 98.1818 24.1645C98.1934 24.1918 98.1993 24.2212 98.1993 24.2508C98.1993 24.2804 98.1934 24.3098 98.1818 24.3371C98.1702 24.3644 98.1533 24.3891 98.132 24.4097C98.0895 24.4457 98.0357 24.4655 97.98 24.4655C97.9243 24.4655 97.8704 24.4457 97.8279 24.4097L97.2062 23.7879L97.0404 23.6359L96.9575 23.553C96.8608 23.4701 96.7502 23.4149 96.6535 23.3458C96.6132 23.3458 96.5746 23.3298 96.5461 23.3013C96.5176 23.2728 96.5016 23.2341 96.5016 23.1938C96.5016 23.1535 96.5176 23.1148 96.5461 23.0863C96.5746 23.0578 96.6132 23.0418 96.6535 23.0418Z"
        fill="white"
      />
      <path
        d="M91.0023 10.5512C91.145 10.4602 91.2926 10.3771 91.4445 10.3025C91.5901 10.224 91.7428 10.1592 91.9004 10.1091C92.2323 10.0328 92.5772 10.0328 92.9091 10.1091C92.9091 10.1091 92.9091 10.1091 92.9091 10.192C92.5835 10.2343 92.2637 10.3131 91.9557 10.4269C91.6517 10.5098 91.3478 10.6341 91.0438 10.7446C90.9747 10.7032 90.9332 10.5927 91.0023 10.5512Z"
        fill="white"
      />
      <path
        d="M44.3146 31.1109L44.6048 30.9866L44.8396 30.9037H44.964L45.1851 30.8208C45.3329 30.7621 45.4855 30.7159 45.641 30.6826H45.945C46.0581 30.6909 46.1696 30.7141 46.2766 30.7517C46.3189 30.7674 46.3554 30.7957 46.3811 30.8327C46.4069 30.8698 46.4208 30.9138 46.4208 30.959C46.4208 31.0041 46.4069 31.0481 46.3811 31.0852C46.3554 31.1222 46.3189 31.1505 46.2766 31.1662C46.1867 31.1855 46.0988 31.2133 46.014 31.2491H45.7653H45.641L45.4337 31.3596C45.2745 31.4473 45.1081 31.5213 44.9364 31.5807H44.7152C44.5886 31.6154 44.455 31.6154 44.3284 31.5807C44.2841 31.5602 44.2464 31.5278 44.2194 31.4871C44.1925 31.4463 44.1775 31.3989 44.1761 31.3501C44.1747 31.3013 44.1868 31.2531 44.2113 31.2108C44.2357 31.1686 44.2715 31.134 44.3146 31.1109Z"
        fill="white"
      />
      <path
        d="M97.9108 5.39743C98.0859 5.34743 98.2676 5.32413 98.4497 5.32834C98.536 5.30779 98.6259 5.30779 98.7122 5.32834L98.8642 5.42507C99.1062 5.58921 99.337 5.76922 99.5551 5.96394C99.5551 5.96394 99.5551 5.96394 99.5551 5.96394C99.5551 5.96394 99.265 5.7843 99.113 5.71522C99.0167 5.65895 98.9067 5.63028 98.7951 5.63232H98.6432C98.6281 5.63965 98.6116 5.64347 98.5948 5.64347C98.5781 5.64347 98.5615 5.63965 98.5464 5.63232H98.4359C98.2671 5.6102 98.1007 5.57321 97.9385 5.52178C97.9216 5.50644 97.91 5.48626 97.905 5.46399C97.9001 5.44173 97.902 5.41848 97.9108 5.39743Z"
        fill="white"
      />
    </svg>