<svg width="211" height="164" viewBox="0 0 211 164" fill="none" xmlns="http://www.w3.org/2000/svg">
<path id="Vector" d="M210.923 -9.50821C210.847 -10.4237 210.572 -11.3086 210.12 -12.0952C209.669 -12.8818 209.051 -13.549 208.316 -14.0457C207.581 -14.5425 206.748 -14.8555 205.88 -14.9607C205.012 -15.066 204.133 -14.9608 203.309 -14.6531C200.725 -13.3328 198.62 -11.1625 197.314 -8.47094C196.722 -7.76298 196.194 -6.99905 195.736 -6.18892C194.235 -3.03372 192.562 0.0278282 190.726 2.98056C188.754 5.80194 186.781 8.62336 184.848 11.5692C184.138 12.1501 183.468 12.7725 182.758 13.2704C178.813 16.0918 176.959 20.0749 173.369 23.0622C170.165 25.3527 167.317 28.152 164.928 31.3605C159.547 33.0395 154.553 35.864 150.253 39.6586C147.68 42.1253 144.38 43.5897 140.905 43.8078C138.134 43.8485 135.368 44.0562 132.621 44.4301C128.203 44.7205 123.942 41.4842 119.879 39.8661C117.046 38.5464 114.15 37.3831 111.201 36.3808C108.475 35.9315 105.711 35.7925 102.957 35.966C99.5643 35.966 96.8425 34.1403 93.5684 33.8499C88.7953 33.4765 85.4029 37.4181 81.7343 39.9905C79.1308 41.7746 76.0935 42.2725 73.49 44.1396C71.0088 46.4417 68.2819 48.4328 65.3639 50.0729C64.8906 50.0729 65.0483 51.1931 65.6006 51.0687C69.9003 50.1974 72.5827 45.7163 76.5668 43.9322C78.8097 43.1049 80.9646 42.0342 82.9967 40.7374C85.2151 38.7147 87.7164 37.0633 90.4127 35.8414C93.1607 35.2983 96.0023 35.7212 98.4992 37.0447C101.272 37.5902 104.081 37.9092 106.901 37.999C113.489 38.9118 120.195 43.3098 126.112 46.2972C130.964 48.7866 135.934 47.9154 141.023 49.2431C143.112 49.6162 145.253 49.505 147.297 48.9173C149.341 48.3297 151.239 47.2797 152.857 45.8408C156.289 43.5173 159.168 40.8618 162.561 38.8288C162.212 41.9073 162.279 45.0223 162.758 48.0813C163.969 53.7118 163.183 59.6134 160.549 64.6777C157.748 70.279 155.303 76.0878 152.384 81.6061C151.058 83.7786 149.581 85.8449 147.966 87.7882C146.904 89.7623 146.208 91.9306 145.914 94.1778C145.914 94.8832 145.48 95.63 145.244 96.3353C143.771 98.855 142.542 101.524 141.575 104.302L141.338 105.048C140.705 105.919 139.865 106.6 138.903 107.022C137.94 107.444 136.89 107.594 135.855 107.455C128.021 107.286 120.229 108.694 112.897 111.604C112.345 111.314 111.753 111.065 111.201 110.733C104.303 107.291 96.8178 105.344 89.1898 105.007C81.8133 104.136 78.7363 107.662 74.7916 113.803C74.3061 114.923 73.6064 115.926 72.7361 116.749C71.8658 117.572 70.8438 118.198 69.7334 118.587C68.6231 118.977 67.4484 119.121 66.2827 119.012C65.1169 118.902 63.985 118.542 62.9576 117.952C59.5352 116.841 56 116.158 52.4254 115.919C52.2992 115.954 52.1875 116.032 52.1079 116.141C52.0283 116.25 51.9851 116.383 51.9851 116.521C51.9851 116.658 52.0283 116.792 52.1079 116.9C52.1875 117.009 52.2992 117.087 52.4254 117.122C55.7141 117.987 58.9325 119.125 62.0504 120.525C64.1014 121.757 66.3978 122.467 68.7563 122.599C73.4505 122.35 76.2118 118.45 78.5786 114.301C79.384 112.508 80.6742 111.004 82.288 109.978C83.9018 108.952 85.7674 108.45 87.6514 108.534C91.0232 108.889 94.3699 109.471 97.6709 110.276C101.248 110.614 104.758 111.509 108.085 112.932L108.558 113.222L105.363 114.384C101.473 115.252 97.9167 117.317 95.1462 120.317C94.3065 121.622 93.5929 123.012 93.0161 124.466C91.5262 127.171 89.62 129.596 87.3752 131.644C83.6277 135.793 83.6672 141.602 77.908 143.843C72.1487 146.083 66.074 143.843 60.4331 143.428C55.089 142.893 49.7006 143.131 44.4177 144.133C41.718 145.079 39.0822 146.215 36.5283 147.535C34.3193 148.448 31.9524 148.158 29.7039 148.863C26.5088 149.859 23.6292 151.311 20.2762 152.016C17.9244 152.384 15.6457 153.155 13.5307 154.298C8.69694 156.89 4.15793 160.05 0.000488281 163.717C3.95965 160.694 8.17145 158.055 12.584 155.833C17.4754 152.929 23.3925 152.722 28.6389 150.772C31.0057 149.859 33.3331 150.066 35.7393 149.402C37.7004 148.62 39.6226 147.734 41.4985 146.747C47.5474 144.931 53.8947 144.493 60.1174 145.461C68.0068 145.876 78.0263 149.859 84.1405 142.307C85.2178 140.823 86.0696 139.171 86.6652 137.411C88.0679 134.823 89.945 132.552 92.1877 130.731C95.2646 127.703 97.1186 122.973 100.945 121.064C105.595 119.063 110.435 117.588 115.382 116.666H115.619C121.77 118.573 128.195 119.318 134.593 118.865C136.408 118.962 138.213 118.533 139.813 117.626C141.413 116.719 142.745 115.368 143.666 113.72C143.666 114.176 143.429 114.55 143.35 115.006C142.167 121.52 143.35 131.105 138.932 136.25C137.031 138.257 135.302 140.437 133.765 142.764C131.984 145.467 129.545 147.616 126.704 148.987C122.492 151.731 119.186 155.773 117.236 160.563C117.189 160.688 117.184 160.826 117.223 160.954C117.261 161.082 117.341 161.193 117.448 161.266C117.554 161.339 117.682 161.371 117.809 161.357C117.936 161.342 118.054 161.282 118.144 161.186C119.936 158.581 121.886 156.1 123.982 153.759C126.013 151.92 128.285 150.397 130.727 149.236C132.88 147.78 134.656 145.784 135.895 143.428C137.552 140.689 140.037 138.864 141.694 136.208C144.889 131.063 144.297 123.47 145.046 117.579C145.796 111.687 148.991 106.459 150.293 100.982C151.63 99.1453 153.291 97.5958 155.184 96.4183C158.103 94.6757 160.707 92.4767 163.587 90.6511C165.761 89.4481 167.526 87.5629 168.636 85.2572C171.003 79.7389 168.636 74.2206 168.636 68.6608C168.598 68.1915 168.598 67.7195 168.636 67.2501C168.962 67.5742 169.362 67.8054 169.797 67.9219C170.233 68.0384 170.689 68.0364 171.123 67.916C171.557 67.7956 171.955 67.5608 172.279 67.2337C172.603 66.9067 172.843 66.4983 172.975 66.0469C174.119 62.8106 173.566 59.4913 174.868 56.421C176.235 53.1146 177.956 49.9826 179.996 47.0855C184.374 40.628 188.04 33.6682 190.923 26.34C194.551 19.1522 198.623 12.2222 203.112 5.59451C204.185 2.99827 205.725 0.645233 207.649 -1.33448C208.78 -2.31868 209.669 -3.57585 210.239 -4.999C210.809 -6.42215 211.043 -7.96913 210.923 -9.50821ZM124.14 114.591H123.232C126.999 113.389 130.945 112.939 134.869 113.264C135.776 113.264 136.605 113.513 137.354 113.554C133.765 115.795 127.493 115.089 124.14 114.591ZM157.354 86.0456C157.709 85.5062 158.025 84.9668 158.34 84.4274C160.589 80.5273 162.482 76.4197 164.533 72.3951C164.468 74.4439 164.244 76.4838 163.863 78.4942C162.798 82.6018 160.115 84.137 157.157 86.0456H157.354ZM169.898 41.0278C169.952 39.4869 170.334 37.9784 171.017 36.6139C171.7 35.2493 172.666 34.0637 173.843 33.1445C174.513 32.8956 174.711 32.5637 174.671 33.4765C173.054 36.1734 171.476 38.4968 169.701 41.0278H169.898Z" fill="#202147"/>
</svg>
