<svg width="209" height="173" viewBox="0 0 209 173" fill="none" xmlns="http://www.w3.org/2000/svg">
<path id="Vector" d="M-1.96916 -0.507846C-1.89307 -1.42331 -1.61859 -2.30827 -1.16681 -3.09483C-0.715027 -3.88138 -0.0979309 -4.54862 0.637115 -5.04535C1.37216 -5.54209 2.2056 -5.85509 3.07353 -5.96038C3.94147 -6.06566 4.8208 -5.96045 5.64406 -5.65275C8.22852 -4.33243 10.3335 -2.1621 11.64 0.529429C12.2317 1.23739 12.7598 2.00131 13.2179 2.81145C14.7189 5.96665 16.3916 9.02819 18.2276 11.9809C20.1999 14.8023 22.1723 17.6237 24.1051 20.5696C24.8152 21.1505 25.4859 21.7728 26.1959 22.2707C30.1406 25.0921 31.9945 29.0753 35.5842 32.0626C38.789 34.353 41.6368 37.1524 44.0259 40.3608C49.4062 42.0399 54.401 44.8644 58.7001 48.659C61.2737 51.1257 64.5733 52.5901 68.049 52.8081C70.8193 52.8488 73.5851 53.0566 76.3328 53.4305C80.7509 53.7209 85.0111 50.4846 89.0741 48.8664C91.9073 47.5468 94.804 46.3834 97.7524 45.3812C100.478 44.9319 103.242 44.7928 105.997 44.9663C109.389 44.9663 112.111 43.1407 115.385 42.8502C120.158 42.4768 123.551 46.4184 127.219 48.9909C129.823 50.775 132.86 51.2729 135.464 53.14C137.945 55.442 140.672 57.4331 143.59 59.0732C144.063 59.0732 143.905 60.1935 143.353 60.069C139.053 59.1977 136.371 54.7167 132.387 52.9326C130.144 52.1053 127.989 51.0345 125.957 49.7378C123.738 47.7151 121.237 46.0637 118.541 44.8418C115.793 44.2987 112.951 44.7216 110.454 46.0451C107.681 46.5905 104.872 46.9096 102.052 46.9993C95.4645 47.9121 88.7586 52.3102 82.8415 55.2975C77.9896 57.787 73.0193 56.9157 67.9306 58.2434C65.8415 58.6165 63.7002 58.5053 61.6562 57.9177C59.6122 57.33 57.7148 56.2801 56.0966 54.8411C52.6647 52.5176 49.7851 49.8622 46.3927 47.8291C46.7412 50.9077 46.6747 54.0226 46.1954 57.0817C44.9848 62.7121 45.7703 68.6138 48.4044 73.6781C51.2051 79.2794 53.6509 85.0881 56.5699 90.6064C57.8956 92.779 59.3723 94.8453 60.988 96.7885C62.0499 98.7627 62.746 100.931 63.0393 103.178C63.0393 103.884 63.4731 104.63 63.7098 105.336C65.1828 107.855 66.4118 110.524 67.3783 113.302L67.6151 114.049C68.2489 114.92 69.0888 115.6 70.051 116.022C71.0132 116.445 72.0639 116.594 73.0982 116.455C80.9323 116.286 88.725 117.695 96.0562 120.604C96.6085 120.314 97.2002 120.065 97.7524 119.733C104.65 116.291 112.136 114.344 119.764 114.007C127.14 113.136 130.217 116.663 134.162 122.803C134.647 123.924 135.347 124.926 136.217 125.749C137.088 126.573 138.11 127.198 139.22 127.588C140.33 127.977 141.505 128.121 142.671 128.012C143.837 127.903 144.969 127.542 145.996 126.953C149.418 125.841 152.954 125.159 156.528 124.919C156.654 124.955 156.766 125.033 156.846 125.141C156.925 125.25 156.968 125.384 156.968 125.521C156.968 125.658 156.925 125.792 156.846 125.901C156.766 126.009 156.654 126.088 156.528 126.123C153.239 126.988 150.021 128.125 146.903 129.525C144.852 130.757 142.556 131.467 140.197 131.599C135.503 131.351 132.742 127.45 130.375 123.301C129.57 121.508 128.279 120.004 126.666 118.978C125.052 117.953 123.186 117.45 121.302 117.534C117.93 117.889 114.584 118.471 111.283 119.277C107.705 119.614 104.196 120.509 100.869 121.932L100.395 122.223L103.591 123.384C107.48 124.252 111.037 126.317 113.807 129.317C114.647 130.622 115.361 132.012 115.937 133.467C117.427 136.171 119.334 138.597 121.578 140.645C125.326 144.794 125.286 150.602 131.046 152.843C136.805 155.083 142.88 152.843 148.52 152.428C153.865 151.894 159.253 152.131 164.536 153.133C167.236 154.079 169.871 155.216 172.425 156.536C174.634 157.448 177.001 157.158 179.25 157.863C182.445 158.859 185.324 160.311 188.677 161.017C191.029 161.385 193.308 162.156 195.423 163.299C200.257 165.891 204.796 169.05 208.953 172.717C204.994 169.694 200.782 167.056 196.37 164.834C191.478 161.929 185.561 161.722 180.315 159.772C177.948 158.859 175.62 159.067 173.214 158.403C171.253 157.62 169.331 156.734 167.455 155.747C161.406 153.932 155.059 153.493 148.836 154.461C140.947 154.876 130.927 158.859 124.813 151.308C123.736 149.823 122.884 148.171 122.288 146.412C120.886 143.823 119.009 141.552 116.766 139.732C113.689 136.703 111.835 131.973 108.009 130.064C103.358 128.063 98.5184 126.589 93.5711 125.666H93.3344C87.1831 127.573 80.759 128.318 74.3605 127.865C72.5456 127.962 70.7402 127.533 69.1406 126.626C67.541 125.719 66.2084 124.368 65.2876 122.72C65.2876 123.177 65.5244 123.55 65.6033 124.007C66.7867 130.521 65.6033 140.105 70.0213 145.25C71.9228 147.257 73.652 149.437 75.1888 151.764C76.9695 154.467 79.4083 156.617 82.2499 157.988C86.4617 160.731 89.7674 164.773 91.7171 169.564C91.7646 169.688 91.7695 169.827 91.731 169.955C91.6926 170.083 91.613 170.193 91.506 170.266C91.3991 170.34 91.2713 170.372 91.1443 170.357C91.0173 170.343 90.8991 170.282 90.8098 170.186C89.0177 167.581 87.0677 165.1 84.9717 162.759C82.9405 160.92 80.6688 159.397 78.2262 158.237C76.0731 156.78 74.2975 154.784 73.0587 152.428C71.4019 149.69 68.9167 147.864 67.26 145.209C64.0648 140.064 64.6566 132.471 63.9071 126.579C63.1576 120.687 59.9623 115.46 58.6606 109.983C57.3233 108.146 55.6628 106.596 53.7692 105.419C50.8502 103.676 48.2467 101.477 45.367 99.6514C43.1924 98.4484 41.4277 96.5633 40.3179 94.2576C37.951 88.7393 40.3179 83.221 40.3179 77.6612C40.3559 77.1918 40.3559 76.7199 40.3179 76.2505C39.9912 76.5746 39.5913 76.8058 39.1562 76.9223C38.721 77.0388 38.2649 77.0368 37.8306 76.9163C37.3964 76.7959 36.9985 76.5611 36.6745 76.2341C36.3505 75.9071 36.111 75.4987 35.9787 75.0473C34.8347 71.811 35.3871 68.4917 34.0853 65.4214C32.7183 62.1149 30.9978 58.9829 28.9571 56.0859C24.5795 49.6284 20.9138 42.6686 18.0304 35.3404C14.4025 28.1526 10.3308 21.2226 5.84135 14.5949C4.76903 11.9986 3.22839 9.6456 1.30487 7.66589C0.173447 6.68169 -0.715088 5.42451 -1.28514 4.00136C-1.85519 2.57821 -2.08986 1.03123 -1.96916 -0.507846ZM84.8139 123.592H85.7212C81.9549 122.39 78.0081 121.939 74.0843 122.264C73.1771 122.264 72.3487 122.513 71.5992 122.554C75.1888 124.795 81.4609 124.09 84.8139 123.592ZM51.5996 95.0459C51.2446 94.5065 50.929 93.9672 50.6134 93.4278C48.3649 89.5276 46.4716 85.42 44.4203 81.3954C44.4856 83.4443 44.7098 85.4841 45.0909 87.4946C46.1559 91.6022 48.8384 93.1373 51.7969 95.0459H51.5996ZM39.0555 50.0282C39.0016 48.4872 38.6191 46.9788 37.9363 45.6142C37.2535 44.2497 36.2879 43.0641 35.1108 42.1449C34.4402 41.896 34.243 41.564 34.2825 42.4768C35.8998 45.1737 37.4777 47.4972 39.2528 50.0282H39.0555Z" fill="#202147"/>
</svg>
