<svg xmlns="http://www.w3.org/2000/svg" width="159" height="95" viewBox="0 0 159 95" fill="none">
  <path d="M83.1969 10.7489H79.5H75.803C58.7174 10.7489 16.686 9.64964 0 0C0 0 9.9916 16.612 25.4786 22.414L28.4427 26.4754H46.1946V38.0183H25.4786L28.4427 42.0797H46.1946V95H53.5884V42.0797H105.412V95H112.805V42.0797H130.557L133.521 38.0183H112.805V26.4754H130.557L133.521 22.414C148.908 16.612 159 0 159 0C142.347 9.64964 100.283 10.7184 83.1969 10.7489ZM75.7365 38.0183H53.5217V26.4754H75.7365V38.0183ZM105.345 38.0183H83.1303V26.4754H105.345V38.0183Z" fill="#E13A4B"/>
</svg>
