<svg xmlns="http://www.w3.org/2000/svg" width="159" height="95" viewBox="0 0 159 95" fill="none">
  <path d="M133.521 163.649L130.557 159.569H112.805V148.089H133.521L130.557 144.008H112.805V0.499996C110.707 0.165036 108.642 0.24363 106.544 2.28882e-05C106.178 2.28882e-05 105.778 0 105.412 0V144.039H53.5884V10.573C51.1341 10.3146 48.665 10.9851 46.1946 11V144.039H28.4427L25.4786 148.119H46.1946V159.599H28.4427L25.4786 163.68C10.0915 169.465 0 186 0 186C16.6527 176.378 58.7174 175.312 75.803 175.281H83.1969C100.283 175.281 142.314 176.378 159 186C159 185.97 149.008 169.435 133.521 163.649ZM75.7365 159.569H53.5217V148.089H75.7365V159.569ZM105.345 159.569H83.1303V148.089H105.345V159.569Z" fill="#202147"/>
</svg>